<svg width="24" height="24" viewBox="0 0 24 24" fill="none" xmlns="http://www.w3.org/2000/svg">
<g clip-path="url(#clip0_222_2877)">
<path fill-rule="evenodd" clip-rule="evenodd" d="M18.4788 15.4722C18.7709 15.7643 18.7709 16.2379 18.4788 16.53L12.495 22.5138C12.2029 22.8059 11.7293 22.8059 11.4372 22.5138L5.45344 16.53C5.16135 16.2379 5.16135 15.7643 5.45344 15.4722C5.74556 15.1801 6.21914 15.1801 6.51123 15.4722L11.9661 20.9271L17.421 15.4722C17.7131 15.1801 18.1867 15.1801 18.4788 15.4722ZM18.4788 8.55165C18.1867 8.84377 17.7131 8.84377 17.421 8.55165L11.9661 3.09677L6.51123 8.55165C6.21914 8.84374 5.74556 8.84374 5.45344 8.55165C5.16135 8.25956 5.16135 7.78596 5.45344 7.49387L11.4372 1.51009C11.5775 1.36982 11.7677 1.29102 11.9661 1.29102C12.1645 1.29102 12.3547 1.36982 12.495 1.51009L18.4788 7.49387C18.7709 7.78596 18.7709 8.25956 18.4788 8.55165Z" fill="#616161"/>
</g>
<defs>
<clipPath id="clip0_222_2877">
<rect width="24" height="24" fill="white"/>
</clipPath>
</defs>
</svg>
