<svg width="16" height="16" viewBox="0 0 16 16" fill="none" xmlns="http://www.w3.org/2000/svg">
<g clip-path="url(#clip0_222_5217)">
<path d="M8.01002 1.15332C6.61584 1.15332 5.25297 1.56674 4.09376 2.3413C2.93455 3.11587 2.03105 4.21678 1.49752 5.50483C0.963992 6.79288 0.824397 8.21022 1.09639 9.5776C1.36838 10.945 2.03974 12.201 3.02557 13.1868C4.0114 14.1727 5.26742 14.844 6.63481 15.116C8.0022 15.388 9.41953 15.2484 10.7076 14.7149C11.9956 14.1814 13.0965 13.2779 13.8711 12.1187C14.6457 10.9594 15.0591 9.59657 15.0591 8.2024C15.0591 6.33287 14.3164 4.53991 12.9945 3.21795C11.6725 1.89599 9.87955 1.15332 8.01002 1.15332ZM8.01002 2.0932C9.47242 2.09229 10.8859 2.61965 11.9904 3.5782L3.35293 12.1452C2.60178 11.2561 2.12021 10.171 1.96491 9.01757C1.80961 7.8641 1.98703 6.69027 2.4763 5.63423C2.96556 4.57819 3.74631 3.68388 4.72666 3.05655C5.707 2.42923 6.84614 2.095 8.01002 2.0932ZM8.01002 14.3116C6.54109 14.3111 5.12206 13.7786 4.01554 12.8125L12.653 4.24082C13.4092 5.12853 13.8955 6.21412 14.0545 7.36936C14.2135 8.5246 14.0386 9.70121 13.5504 10.7602C13.0621 11.8192 12.281 12.7164 11.2992 13.3457C10.3175 13.975 9.17615 14.3101 8.01002 14.3116Z" fill="black"/>
</g>
<defs>
<clipPath id="clip0_222_5217">
<rect width="15.038" height="15.038" fill="white" transform="translate(0.484375 0.683594)"/>
</clipPath>
</defs>
</svg>
