<svg width="50" height="50" viewBox="0 0 50 50" fill="none" xmlns="http://www.w3.org/2000/svg">
<g clip-path="url(#clip0_222_1219)">
<path d="M49.1003 8.78669C49.7467 7.77807 50.055 6.60817 49.9918 5.40347C49.8411 2.52878 47.4712 0.158884 44.5965 0.00819827C41.5823 -0.14984 39.1294 2.00888 38.6639 4.72906H11.336C10.8698 2.00437 8.41149 -0.151017 5.40346 0.00829631C2.52877 0.158884 0.158878 2.52878 0.00809397 5.40337C-0.0551411 6.60798 0.253093 7.77787 0.899561 8.78669C1.5525 9.80551 1.5525 11.0714 0.899561 12.0903C0.253191 13.0989 -0.055043 14.2687 0.00809397 15.4733C0.161329 18.3973 2.63691 20.8767 5.71376 20.8767C8.55247 20.8767 10.881 18.8067 11.336 16.1477H38.6639C39.1274 18.8566 41.5725 21.027 44.5965 20.8686C47.4712 20.7179 49.8411 18.348 49.9918 15.4733C50.0551 14.2686 49.7467 13.0987 49.1003 12.0903C48.4474 11.0714 48.4474 9.80551 49.1003 8.78669ZM47.4495 13.1482C47.8732 13.8094 48.0754 14.5779 48.0337 15.3707C47.9348 17.2567 46.38 18.8117 44.4939 18.9106C42.3353 19.023 40.542 17.3147 40.542 15.1674C40.542 14.6259 40.103 14.187 39.5616 14.187H10.4383C9.89688 14.187 9.45796 14.6259 9.45796 15.1674C9.45796 17.3056 7.67257 19.0246 5.50611 18.9106C3.62004 18.8117 2.06505 17.2567 1.96622 15.3707C1.92465 14.5779 2.12671 13.8094 2.55044 13.1481C3.62161 11.4767 3.62161 9.40002 2.55044 7.72866C2.12661 7.06729 1.92465 6.29876 1.96622 5.50612C2.06514 3.61995 3.62004 2.06505 5.50611 1.96623C7.67022 1.85201 9.45796 3.56848 9.45796 5.70945C9.45796 6.25082 9.89688 6.68984 10.4383 6.68984H39.5616C40.103 6.68984 40.542 6.25092 40.542 5.70945C40.542 3.57632 42.3214 1.8527 44.4939 1.96623C46.38 2.06505 47.9349 3.61995 48.0337 5.50612C48.0754 6.29886 47.8732 7.06739 47.4494 7.72866C46.3784 9.40002 46.3784 11.4767 47.4495 13.1482Z" fill="black"/>
<path d="M24.9987 18.627C16.3086 18.627 9.3125 25.7028 9.3125 34.3132C9.3125 42.9361 16.3225 49.9994 24.9987 49.9994C33.6892 49.9994 40.6849 42.9232 40.6849 34.3132C40.6849 25.6881 33.6725 18.627 24.9987 18.627ZM14.954 24.9702C19.8546 30.2212 19.8579 38.4018 14.954 43.6563C10.0437 38.3807 10.0476 30.2415 14.954 24.9702ZM16.387 44.9922C21.9538 38.9944 22.0132 29.6958 16.387 23.6342C21.412 19.574 28.5773 19.5674 33.6105 23.6342C28.0437 29.6318 27.9842 38.9305 33.6105 44.9922C28.5855 49.0524 21.4201 49.059 16.387 44.9922ZM35.0433 43.6563C30.1428 38.4052 30.1396 30.2246 35.0433 24.9702C39.9538 30.2456 39.9499 38.3849 35.0433 43.6563Z" fill="black"/>
</g>
<defs>
<clipPath id="clip0_222_1219">
<rect width="50" height="50" fill="white"/>
</clipPath>
</defs>
</svg>
