<svg width="50" height="50" viewBox="0 0 50 50" fill="none" xmlns="http://www.w3.org/2000/svg">
<g clip-path="url(#clip0_222_1243)">
<path d="M38.2812 39.8436C38.074 39.8436 37.8753 39.7613 37.7288 39.6148C37.5823 39.4683 37.5 39.2696 37.5 39.0624C37.5 38.9709 37.4617 29.7952 34.4531 23.7866C31.868 18.6147 23.8109 17.4155 22.2219 17.228C21.8331 17.183 21.4551 17.0709 21.1047 16.8967C20.656 16.6764 20.2606 16.3612 19.9457 15.973C19.6309 15.5848 19.4042 15.1328 19.2813 14.6483C18.4875 11.5092 16.132 4.28032 10.9375 1.91313V6.24985C10.9375 6.45705 10.8552 6.65577 10.7087 6.80228C10.5622 6.94879 10.3635 7.0311 10.1563 7.0311C9.94905 7.0311 9.75034 6.94879 9.60382 6.80228C9.45731 6.65577 9.375 6.45705 9.375 6.24985V0.781102C9.37487 0.658368 9.40366 0.537329 9.45903 0.427796C9.51441 0.318264 9.59481 0.223318 9.69372 0.150655C9.79264 0.0779916 9.90728 0.0296552 10.0284 0.009563C10.1494 -0.0105292 10.2735 -0.00181178 10.3906 0.0350087C17.05 2.09829 19.8906 10.6725 20.8023 14.2639C20.8971 14.634 21.1014 14.9668 21.3886 15.2188C21.6758 15.4707 22.0324 15.6299 22.4117 15.6756C24.8406 15.9639 32.9875 17.3467 35.8586 23.0881C39.0258 29.4303 39.0625 38.6717 39.0625 39.0624C39.0625 39.2696 38.9802 39.4683 38.8337 39.6148C38.6872 39.7613 38.4885 39.8436 38.2812 39.8436Z" fill="black"/>
<path d="M14.0624 49.9995H7.81243C7.60523 49.9995 7.40652 49.9172 7.26 49.7707C7.11349 49.6242 7.03118 49.4255 7.03118 49.2183C7.03118 44.9019 9.32024 43.4753 10.6851 43.0105C11.5624 42.7105 12.4999 42.1323 12.4999 41.4058V36.7183C12.3941 35.7428 11.9333 34.8403 11.2054 34.1823C6.54134 30.1144 7.27102 24.6808 7.66321 21.7605C7.73949 21.2808 7.7893 20.7972 7.81243 20.312C7.81243 18.7566 7.81243 18.7566 4.76946 17.5776L3.62102 17.1308C2.96243 16.8081 -6.9747e-05 15.2276 -6.9747e-05 13.2808C-0.0456194 12.2218 0.315819 11.1856 1.01009 10.3847C1.09612 10.2993 1.20064 10.2349 1.31556 10.1964L3.24681 9.55265C3.63222 7.93329 4.48329 6.46219 5.695 5.32086C6.90671 4.17954 8.42605 3.41792 10.0656 3.12999C10.2707 3.10669 10.4768 3.16557 10.6387 3.29376C10.8006 3.42194 10.9051 3.60901 10.9295 3.81406C10.9539 4.01912 10.8961 4.22548 10.7687 4.38804C10.6414 4.55059 10.4549 4.65612 10.2499 4.68156C8.85093 4.92912 7.56311 5.60436 6.56384 6.61427C5.56456 7.62418 4.90299 8.91908 4.67024 10.3206C4.64147 10.4532 4.57865 10.5761 4.48796 10.6771C4.39727 10.778 4.28185 10.8536 4.15306 10.8964L2.02415 11.6066C1.70438 12.1051 1.54339 12.6888 1.56243 13.2808C1.56243 13.9839 3.12493 15.1409 4.25618 15.7066L5.33352 16.1222C8.67884 17.4159 9.37493 17.6855 9.37493 20.312C9.35377 20.8674 9.29925 21.421 9.21165 21.9698C8.83352 24.7823 8.20149 29.4886 12.232 33.0042C13.2838 33.9499 13.938 35.2593 14.0624 36.6683V41.4058C14.0624 42.723 12.9882 43.8745 11.1898 44.4886C9.67415 45.0058 8.79602 46.3636 8.62493 48.437H14.0624C14.2696 48.437 14.4683 48.5193 14.6149 48.6658C14.7614 48.8124 14.8437 49.0111 14.8437 49.2183C14.8437 49.4255 14.7614 49.6242 14.6149 49.7707C14.4683 49.9172 14.2696 49.9995 14.0624 49.9995ZM41.4062 49.9995H17.1874C16.9802 49.9995 16.7815 49.9172 16.635 49.7707C16.4885 49.6242 16.4062 49.4255 16.4062 49.2183C16.4062 44.8925 19.9835 43.7495 21.8749 43.7495H22.4351C20.9873 41.6962 20.2427 39.2297 20.3124 36.7183C20.3124 31.7745 24.9116 30.4683 27.3437 30.4683C27.5509 30.4683 27.7496 30.5506 27.8961 30.6971C28.0426 30.8436 28.1249 31.0423 28.1249 31.2495C28.1249 31.4567 28.0426 31.6554 27.8961 31.802C27.7496 31.9485 27.5509 32.0308 27.3437 32.0308C27.1202 32.0308 21.8749 32.1089 21.8749 36.7183C21.8749 41.7386 24.6593 43.8847 24.6874 43.9058C24.8186 44.0042 24.9155 44.1413 24.9644 44.2978C25.0133 44.4543 25.0117 44.6223 24.9598 44.7778C24.908 44.9334 24.8085 45.0687 24.6755 45.1646C24.5425 45.2604 24.3827 45.312 24.2187 45.312H21.8749C21.507 45.312 18.4734 45.43 18.0241 48.437H41.4062C45.6702 48.437 47.6562 45.2097 47.6562 38.2808C47.6562 33.9269 46.2499 31.7183 43.9343 28.63C43.582 28.255 41.4062 25.7456 41.4062 21.0933C41.4062 16.7675 44.4726 15.6245 46.0937 15.6245H46.8749C47.2893 15.6245 47.6868 15.4599 47.9798 15.1669C48.2728 14.8739 48.4374 14.4764 48.4374 14.062C48.4374 13.6476 48.2728 13.2502 47.9798 12.9572C47.6868 12.6641 47.2893 12.4995 46.8749 12.4995H46.0937C46.0507 12.4995 41.6984 12.5316 39.6148 14.6144C37.5312 16.6972 37.4999 21.8237 37.4999 21.8745C37.4999 22.0817 37.4176 22.2804 37.2711 22.427C37.1246 22.5735 36.9259 22.6558 36.7187 22.6558C36.5115 22.6558 36.3128 22.5735 36.1663 22.427C36.0197 22.2804 35.9374 22.0817 35.9374 21.8745C35.9374 21.6401 35.9671 16.0534 38.5101 13.5097C41.0531 10.9659 45.889 10.937 46.0937 10.937H46.8749C47.7037 10.937 48.4986 11.2663 49.0846 11.8523C49.6707 12.4384 49.9999 13.2332 49.9999 14.062C49.9999 14.8908 49.6707 15.6857 49.0846 16.2717C48.4986 16.8578 47.7037 17.187 46.8749 17.187H46.0937C45.7812 17.187 42.9687 17.3362 42.9687 21.0933C42.9687 25.3644 45.0656 27.5534 45.0859 27.5776C45.1109 27.6022 45.1343 27.6283 45.1562 27.6558C47.6101 30.9277 49.2187 33.437 49.2187 38.2808C49.2187 41.1792 49.2187 49.9995 41.4062 49.9995Z" fill="black"/>
</g>
<defs>
<clipPath id="clip0_222_1243">
<rect width="50" height="50" fill="white"/>
</clipPath>
</defs>
</svg>
