<svg width="50" height="50" viewBox="0 0 50 50" fill="none" xmlns="http://www.w3.org/2000/svg">
<path d="M48.9118 33.2336C46.8392 33.2681 44.5621 32.1135 43.0435 31.1632C44.177 31.0583 45.267 30.6749 46.2166 30.0471C46.3354 29.9619 46.418 29.8353 46.4482 29.6923C46.4784 29.5492 46.4541 29.4 46.3799 29.274C46.3058 29.148 46.1872 29.0543 46.0475 29.0112C45.9078 28.9682 45.7571 28.9789 45.6249 29.0413C45.4734 29.1125 44.9976 29.2258 43.8545 28.7447C42.5235 28.17 41.3836 27.2284 40.5679 26.0298C38.0875 22.4583 35.2342 22.4908 34.1106 22.6739C33.9053 22.3356 33.6655 22.0196 33.3951 21.7307C32.5179 20.7932 30.8607 19.6612 27.9459 19.5934C26.9933 19.5813 26.0428 19.503 25.1011 19.359C24.6016 19.2728 24.1449 19.0229 23.8029 18.6486C23.461 18.2743 23.2532 17.797 23.2123 17.2917C23.0499 15.4088 22.4359 14.0574 21.7972 13.1332C21.8982 13.1495 22.0016 13.1391 22.0973 13.1031C22.1931 13.067 22.2777 13.0066 22.3428 12.9277C22.4078 12.8488 22.4512 12.7543 22.4684 12.6535C22.4856 12.5527 22.4762 12.4491 22.441 12.3531C21.7541 10.4789 20.1388 9.0777 18.8505 8.20748C18.9459 8.17977 19.0327 8.12827 19.1027 8.05781C19.1727 7.98736 19.2236 7.90027 19.2507 7.80472C19.2778 7.70917 19.2802 7.6083 19.2576 7.51159C19.235 7.41487 19.1882 7.32548 19.1216 7.25182C16.6216 4.48678 12.8047 4.60475 11.3859 4.7609C10.9333 3.64186 9.59653 2.82604 9.42124 2.72272C9.32294 2.66479 9.20986 2.63683 9.09589 2.64227C8.98191 2.6477 8.87201 2.68629 8.77966 2.75331C8.68731 2.82032 8.61654 2.91284 8.57603 3.01951C8.53552 3.12617 8.52703 3.24235 8.55161 3.35377L8.6688 3.88414L8.31958 3.67613C8.20514 3.60795 8.07088 3.5808 7.93894 3.59915C7.807 3.61751 7.68525 3.68027 7.59376 3.77711C7.50228 3.87394 7.44652 3.99905 7.43568 4.13182C7.42484 4.26459 7.45957 4.39709 7.53413 4.50748C7.71792 4.77965 7.77329 5.81324 7.71841 6.70309C6.6603 7.76012 5.62134 10.8106 5.32007 11.7463C4.62075 12.4452 4.03833 13.7926 5.0688 14.9947C5.32423 15.3029 5.65293 15.5422 6.02478 15.6905C6.39664 15.8388 6.79976 15.8914 7.19722 15.8435C7.44036 15.8184 7.67561 15.743 7.88795 15.6219C8.1003 15.5008 8.28508 15.3369 8.43052 15.1404C8.51681 15.0194 8.58782 14.8882 8.64194 14.7498C9.3353 14.5919 10.7559 14.1022 11.5228 12.6599C11.7129 12.8517 11.8621 13.0801 11.9613 13.3312C12.3393 14.2716 12.1233 15.6318 11.3363 17.2647C9.85552 20.3386 9.54067 22.3158 9.53735 23.4331C9.53551 23.518 9.50323 23.5993 9.44638 23.6624C9.38954 23.7255 9.31192 23.766 9.22769 23.7766C8.46343 23.8811 7.13726 23.5741 5.45816 23.1852L5.44224 23.1816C4.59116 22.9844 3.84653 23.0916 3.22896 23.5001C2.18403 24.1912 1.94214 25.4998 1.93228 25.5551C1.92459 25.5994 1.9219 25.6444 1.92427 25.6892C1.92525 25.7068 2.00659 27.4559 1.09556 28.3198C0.301612 29.0726 0.280519 30.3887 1.03618 32.0256C1.1833 32.3412 1.2856 32.6757 1.34009 33.0196L1.62661 34.8682C1.65986 35.0846 1.76932 35.2819 1.93524 35.4246C2.10116 35.5674 2.31262 35.6462 2.5315 35.6467C2.56118 35.6467 2.59107 35.6453 2.62114 35.6423C3.31128 35.5748 3.8731 35.2581 4.20317 34.7506C4.64429 34.0728 4.65923 33.098 4.24761 31.8535C4.13999 31.5277 3.92696 31.2471 3.64214 31.0558C3.58314 31.017 3.53711 30.9615 3.50996 30.8963C3.48281 30.8311 3.47579 30.7593 3.4898 30.6901C3.6228 30.0353 4.03726 28.2585 4.78198 27.255C4.71211 27.6099 4.71984 27.9756 4.80464 28.3272C4.83394 28.4601 4.68569 28.9109 4.58755 29.2091C4.28569 30.1271 3.82954 31.5138 4.75357 32.65C5.20757 33.2085 5.37173 33.7242 5.53052 34.2236C5.73618 34.87 5.94878 35.5383 6.73511 36.025C6.83097 36.0843 6.94191 36.1147 7.05462 36.1126C7.16733 36.1104 7.27703 36.0758 7.37056 36.0129C8.3022 35.386 8.7981 34.6444 8.84448 33.8086C8.91421 32.5544 7.9353 31.5282 7.34556 31.028C7.27379 30.9662 7.22406 30.8827 7.20386 30.7901C6.96157 29.7396 7.03648 28.9481 7.42671 28.4375C7.8313 27.9081 8.49614 27.8057 8.67905 27.7872C10.6577 28.3002 12.7502 28.1493 14.6347 27.3575C15.3401 28.5516 17.5267 31.2697 22.8987 31.5176C23.1367 32.7212 23.7593 34.0985 25.1322 35.4496C25.4672 35.9033 25.7649 36.3833 26.0224 36.8851C26.547 37.9153 26.7347 38.7682 26.5655 39.3516C26.446 39.7628 26.1313 40.0552 25.603 40.2456C24.4062 40.6768 23.8516 41.286 23.3851 41.8386C22.9017 41.8295 22.4189 41.8778 21.9469 41.9825C20.6534 42.2794 19.7834 43.0005 19.4312 44.0679C19.3826 44.2152 19.3944 44.3757 19.4639 44.5143C19.5335 44.653 19.6552 44.7583 19.8023 44.8074L19.366 45.3754C19.2964 45.4659 19.2548 45.5748 19.2463 45.6887C19.2378 45.8026 19.2628 45.9165 19.3181 46.0164C19.6249 46.5697 20.4049 47.3611 21.5423 47.3611C21.9877 47.3542 22.4257 47.2463 22.8232 47.0455C22.9472 46.9858 23.0462 46.8844 23.103 46.759L23.7232 45.3878L25.1436 45.0702C25.2197 45.0532 25.2916 45.0212 25.3551 44.976C25.4186 44.9309 25.4725 44.8735 25.5136 44.8073C25.9752 44.0634 27.4742 42.077 28.8491 41.8213C30.122 41.5846 30.9993 41.0213 31.3862 40.1922C31.628 39.6738 31.7768 38.8097 31.1153 37.6368C30.26 36.1213 30.86 34.3318 31.3329 34.0137C31.3915 33.9747 31.4814 33.9204 31.5854 33.858C32.7033 33.1874 35.6102 31.4432 35.7846 26.6541C35.7868 26.6551 35.7888 26.6562 35.791 26.6575C35.9682 26.7545 36.5613 27.2713 36.7549 29.8473C36.9148 31.9747 37.686 33.5244 39.047 34.4531C41.096 35.8514 44.3824 35.8272 49.0938 34.3794C49.2287 34.3379 49.344 34.2491 49.4187 34.1294C49.4934 34.0096 49.5223 33.867 49.5002 33.7276C49.4781 33.5883 49.4065 33.4616 49.2985 33.3708C49.1905 33.28 49.0533 33.2312 48.9123 33.2335L48.9118 33.2336ZM7.67417 33.7435C7.65464 34.1002 7.44751 34.4484 7.05825 34.7822C6.8771 34.5699 6.78228 34.2939 6.64692 33.8683C6.4731 33.3214 6.2563 32.6416 5.66255 31.9108C5.18023 31.3174 5.37417 30.5685 5.70083 29.5754C5.89614 28.9823 6.0644 28.4701 5.93189 28.0068C5.85112 27.7241 5.96118 27.2166 6.1146 26.7695C6.40533 26.9336 6.70426 27.0828 7.01021 27.2164C6.82115 27.3579 6.65193 27.5241 6.50708 27.7106C5.88482 28.5127 5.73501 29.6374 6.06167 31.0535C6.138 31.3923 6.32252 31.6971 6.58735 31.9217C6.85347 32.1475 7.71851 32.946 7.67417 33.7435ZM39.7074 33.4852C38.6406 32.7573 38.057 31.5386 37.9233 29.7595C37.7475 27.4226 37.2183 26.0633 36.3049 25.6041C36.0846 25.4929 35.8398 25.4389 35.5931 25.4472C35.3464 25.4554 35.1057 25.5256 34.8933 25.6513C34.8094 25.7044 34.7403 25.778 34.6926 25.8651C34.6449 25.9522 34.6202 26.0501 34.6207 26.1494C34.6396 30.6595 32.0768 32.1969 30.9825 32.8535C30.8643 32.9244 30.7623 32.9856 30.6784 33.0421C30.1433 33.4023 29.718 34.219 29.5685 35.1734C29.3983 36.2171 29.5836 37.2877 30.0947 38.2134C30.4295 38.8067 30.5067 39.3059 30.3241 39.6973C30.1072 40.1622 29.5072 40.5079 28.6346 40.6699C27.7041 40.8429 26.7232 41.4975 25.7189 42.6155C25.3343 43.0457 24.979 43.5013 24.6556 43.9792L23.1818 44.3086C23.0931 44.3284 23.0103 44.3685 22.9398 44.4259C22.8693 44.4832 22.8132 44.5561 22.7757 44.6389L22.1284 46.0703C21.3471 46.3649 20.8354 46.0301 20.5629 45.7413L21.2602 44.8331C21.3186 44.757 21.3575 44.6677 21.3734 44.5731C21.3893 44.4785 21.3817 44.3815 21.3513 44.2905C21.3209 44.1995 21.2686 44.1174 21.1991 44.0513C21.1295 43.9852 21.0448 43.9373 20.9524 43.9116L20.845 43.8823C21.137 43.5246 21.5842 43.273 22.1818 43.1315C22.6427 43.027 23.1164 42.9897 23.588 43.0209C23.6824 43.0303 23.7776 43.0167 23.8655 42.9812C23.9534 42.9457 24.0313 42.8894 24.0926 42.8171L24.2066 42.6819C24.651 42.1528 25.0349 41.6956 25.9995 41.3483C27.1127 40.9472 27.5333 40.2189 27.6901 39.6784C28.274 37.6667 26.2659 34.9992 26.035 34.7016C26.0185 34.6803 26.0005 34.6602 25.9812 34.6415C22.8781 31.6141 24.2318 28.4956 24.2899 28.3666C24.355 28.2254 24.3613 28.0642 24.3075 27.9184C24.2537 27.7725 24.1442 27.6541 24.003 27.589C23.8619 27.5239 23.7006 27.5176 23.5548 27.5714C23.409 27.6252 23.2905 27.7347 23.2254 27.8758C22.9063 28.6559 22.7525 29.4937 22.7738 30.3362C20.4224 30.1963 18.4409 29.5084 17.0159 28.3275C16.4987 27.9049 16.0523 27.4025 15.6935 26.8392C16.3543 26.4654 16.9779 26.0294 17.5559 25.5372C17.6153 25.4877 17.6643 25.4269 17.7002 25.3584C17.736 25.2899 17.7579 25.215 17.7646 25.138C17.7714 25.061 17.7628 24.9834 17.7394 24.9097C17.716 24.836 17.6782 24.7677 17.6283 24.7086C17.5784 24.6496 17.5173 24.601 17.4485 24.5657C17.3797 24.5304 17.3047 24.509 17.2276 24.5029C17.1505 24.4967 17.073 24.5059 16.9995 24.5298C16.926 24.5537 16.8579 24.592 16.7993 24.6423C14.7631 26.364 12.542 27.1157 10.1984 26.8759C8.87324 26.7365 7.59567 26.3042 6.45816 25.6103C6.29491 25.5078 6.11232 25.44 5.92174 25.411C5.73116 25.3821 5.53666 25.3926 5.35034 25.4421C4.3898 25.7008 3.08814 26.7807 2.34165 30.4564C2.28051 30.7539 2.30982 31.0629 2.4258 31.3435C2.54178 31.6242 2.73913 31.8638 2.99243 32.0313C3.05988 32.0772 3.11017 32.1442 3.1354 32.2217C3.42134 33.0863 3.45191 33.7575 3.22134 34.1118C3.10768 34.2739 2.93818 34.3883 2.74536 34.4331L2.49898 32.8407C2.42773 32.389 2.29379 31.9495 2.10103 31.5349C1.90874 31.1184 1.32622 29.7171 1.90269 29.1705C3.08247 28.0517 3.10845 26.1431 3.09829 25.71C3.14546 25.5153 3.34614 24.8245 3.88159 24.4743C4.22427 24.2502 4.64849 24.2008 5.17857 24.3236L5.19458 24.3273C7.06118 24.7596 8.40991 25.0717 9.38735 24.938C9.7512 24.8881 10.085 24.709 10.3278 24.4334C10.5706 24.1579 10.7062 23.8042 10.71 23.437C10.7125 22.6215 10.9346 20.8014 12.3929 17.7737C13.3397 15.8083 13.5604 14.1668 13.0491 12.8946C12.7625 12.1508 12.1922 11.5512 11.4637 11.2277C11.3891 11.1997 11.3096 11.1873 11.23 11.1911C11.1504 11.195 11.0724 11.215 11.0008 11.25C10.9292 11.285 10.8655 11.3342 10.8136 11.3947C10.7617 11.4551 10.7226 11.5256 10.6989 11.6016C10.3407 12.7504 9.43569 13.2632 8.79946 13.4875C8.7843 13.2733 8.75629 13.0603 8.71558 12.8496C8.68649 12.6969 8.59795 12.5621 8.46944 12.4747C8.34093 12.3873 8.18298 12.3546 8.03032 12.3837C7.87767 12.4127 7.74282 12.5013 7.65544 12.6298C7.56807 12.7583 7.53532 12.9163 7.5644 13.0689C7.68765 13.716 7.65757 14.2084 7.47954 14.4556C7.44644 14.5015 7.34556 14.6412 7.04126 14.6822C6.8375 14.7036 6.63162 14.6736 6.44241 14.595C6.25321 14.5164 6.08669 14.3917 5.95806 14.2322C5.26987 13.4294 6.05571 12.6553 6.21724 12.5105C6.29834 12.4397 6.35835 12.348 6.39067 12.2453C6.92935 10.5358 7.97788 7.92233 8.62397 7.46354C8.69317 7.41433 8.75084 7.35066 8.79299 7.27696C8.83515 7.20326 8.86078 7.12127 8.86812 7.03668C8.91668 6.48646 8.92513 5.93344 8.89341 5.38199L9.23218 5.58365C9.33041 5.64214 9.4436 5.67062 9.55781 5.66557C9.67202 5.66053 9.78227 5.62218 9.87495 5.55526C9.96764 5.48834 10.0387 5.39576 10.0795 5.28893C10.1202 5.18211 10.1288 5.06571 10.1042 4.95406L10.0726 4.811C10.2283 4.99348 10.3291 5.21635 10.3632 5.45377C10.3689 5.53656 10.392 5.6172 10.4311 5.69039C10.4702 5.76357 10.5244 5.82763 10.5901 5.87832C10.6558 5.92902 10.7315 5.96521 10.8122 5.98449C10.8929 6.00378 10.9767 6.00572 11.0583 5.9902C11.0981 5.98248 14.5619 5.35279 17.1755 7.10729L16.7769 7.12018C16.6444 7.12448 16.5174 7.17355 16.4164 7.25939C16.3154 7.34524 16.2465 7.46277 16.221 7.59281C16.1954 7.72285 16.2147 7.85772 16.2757 7.97539C16.3366 8.09305 16.4357 8.18658 16.5567 8.24069C16.5888 8.25514 19.3283 9.50231 20.7565 11.627L19.9887 11.4113C19.8513 11.3728 19.7045 11.3858 19.576 11.4478C19.4475 11.5098 19.346 11.6166 19.2906 11.7481C19.2352 11.8797 19.2297 12.0269 19.2752 12.1622C19.3207 12.2975 19.414 12.4115 19.5375 12.4829C19.5594 12.4956 21.7348 13.789 22.0452 17.3924C22.1084 18.1567 22.424 18.8782 22.9423 19.4434C23.4605 20.0087 24.152 20.3856 24.9079 20.5148C25.9046 20.6679 26.9108 20.7514 27.9192 20.7647C31.4181 20.846 32.7795 22.5975 33.261 23.5413C33.2753 23.5805 33.2937 23.6181 33.3159 23.6534C33.39 23.8058 33.4503 23.9645 33.4962 24.1276C33.5135 24.2031 33.5455 24.2745 33.5906 24.3376C33.6356 24.4007 33.6927 24.4542 33.7585 24.4951C33.8244 24.5359 33.8977 24.5633 33.9742 24.5757C34.0507 24.588 34.1289 24.5851 34.2042 24.567C34.2796 24.5489 34.3506 24.516 34.4132 24.4703C34.4757 24.4246 34.5286 24.3669 34.5687 24.3006C34.6089 24.2343 34.6355 24.1607 34.6469 24.0841C34.6584 24.0075 34.6546 23.9293 34.6357 23.8542C34.6308 23.834 34.6254 23.8139 34.6196 23.7939C35.6326 23.7233 37.7153 23.9757 39.6058 26.6979C40.5482 28.0793 41.8643 29.1638 43.4003 29.8247C43.4604 29.85 43.5198 29.8742 43.5784 29.8974C42.755 30.0763 41.9007 30.0533 41.0881 29.8304C40.9587 29.7945 40.8209 29.8042 40.6978 29.8577C40.5746 29.9113 40.4736 30.0056 40.4117 30.1247C40.3497 30.2439 40.3305 30.3807 40.3574 30.5123C40.3843 30.6438 40.4555 30.7622 40.5592 30.8475C40.6959 30.9603 43.2078 33.0043 46.1318 33.9422C43.2018 34.5515 41.047 34.3994 39.7074 33.4852Z" fill="black"/>
</svg>
