<svg width="50" height="50" viewBox="0 0 50 50" fill="none" xmlns="http://www.w3.org/2000/svg">
<path d="M38.2852 49.2188H32.8164C32.6055 49.2188 32.4102 49.1328 32.2617 48.9922C32.1602 48.8906 29.6914 46.3594 29.6914 41.4062C29.6914 40.9688 29.6914 40.5625 29.707 40.1797C29.0117 41.2031 28.1523 42.1719 27.1289 42.8438C26.7695 43.0781 26.2852 42.9766 26.0508 42.6172C25.8164 42.2578 25.918 41.7734 26.2773 41.5391C28.4102 40.1484 29.7695 36.9844 30.2773 35.6016C30.4102 35.1172 30.5273 34.875 30.5586 34.8125C30.7383 34.4531 31.168 34.2812 31.543 34.4375C31.918 34.5859 32.1211 35 32.0039 35.3906C31.9883 35.4375 31.918 35.6875 31.7773 36.0703C31.5664 36.8438 31.2617 38.5 31.2617 41.4141C31.2617 44.8984 32.6602 47 33.1836 47.6641H37.5117C37.5117 47.1875 36.1211 46.8828 35.168 46.8828C34.7773 46.8828 34.4492 46.5938 34.3945 46.2109C34.2305 45.0469 32.8633 34.7422 36.2617 32.1953C39.0273 30.1172 39.0742 25.8281 39.0742 25.7891C39.0742 22.3828 37.8086 19.2969 36.8789 17.0391C36.3398 15.7188 35.9492 14.7656 35.9492 14.0703C35.9492 12.2188 37.9961 11.7266 39.0742 11.7266C41.7305 11.7266 42.6602 10.0859 42.9414 9.375C42.9648 9.30469 42.9805 9.22656 42.9805 9.14062C42.9805 8.98211 42.9238 8.82882 42.8206 8.70846C42.7174 8.5881 42.5746 8.50862 42.418 8.48437C41.2305 8.3125 39.5977 7.88281 38.5195 6.80469C38.4102 6.69531 38.3398 6.55469 38.3086 6.40625C38.2773 6.27344 37.5664 3.125 33.6055 3.125C29.3086 3.125 26.5742 6.71875 26.5742 8.59375C26.5742 9.52344 26.707 9.69531 26.7148 9.70312C26.7383 9.71875 26.8398 9.75781 26.918 9.78906C27.168 9.88281 27.543 10.0234 27.9102 10.3906C28.2773 10.7578 28.4727 11.1719 28.668 11.5469C29.0508 12.3125 29.1992 12.5 29.707 12.5C30.2773 12.5 31.0664 12.375 31.582 11.7656C32.1914 11.0469 32.3633 9.71875 32.0664 7.9375C31.9961 7.51562 32.2852 7.10938 32.707 7.03906C33.1367 6.96094 33.5352 7.25781 33.6055 7.67969C33.9883 9.96094 33.707 11.6719 32.7773 12.7734C32.0664 13.6172 31.0039 14.0625 29.7148 14.0625C28.1914 14.0625 27.6445 12.9688 27.2773 12.2422C27.1289 11.9453 26.9883 11.6641 26.8164 11.4922C26.6914 11.3672 26.5664 11.3203 26.3867 11.25C25.5039 10.9219 25.0273 10.3984 25.0273 8.59375C25.0273 5.79688 28.457 1.5625 33.6211 1.5625C37.6133 1.5625 39.3555 4.22656 39.793 5.83594C40.418 6.36719 41.4258 6.75 42.6602 6.9375C43.1875 7.01769 43.6687 7.28387 44.0169 7.68792C44.365 8.09198 44.5572 8.60725 44.5586 9.14062C44.5586 9.42188 44.5117 9.6875 44.4102 9.9375C44.1055 10.7188 42.8164 13.2812 39.0898 13.2812C39.0742 13.2812 37.5273 13.3281 37.5273 14.0625C37.5273 14.4531 37.9258 15.4141 38.3398 16.4375C39.2617 18.6797 40.6523 22.0625 40.6523 25.7812C40.6523 25.9922 40.6133 30.8906 37.2148 33.4375C35.3086 34.8672 35.3711 41.2344 35.8711 45.3438C37.4805 45.4844 39.0898 46.1484 39.0898 47.6562V48.4375C39.0898 48.8672 38.7383 49.2188 38.3086 49.2188H38.2852Z" fill="black"/>
<path d="M10.172 41.406H10.1564C9.72669 41.3982 9.38294 41.0388 9.39076 40.6091C9.45326 37.2341 9.85951 35.031 11.8751 32.3435C12.9454 30.9138 14.1798 30.2185 15.4845 29.4841C17.3126 28.4529 19.3829 27.281 22.0314 23.7498C24.5626 20.3748 25.9142 17.2419 26.6017 15.2107C26.7423 14.8044 27.1798 14.5857 27.5939 14.7185C28.0001 14.8591 28.2189 15.3044 28.0861 15.7107C27.3595 17.8513 25.9376 21.1482 23.2814 24.6873C20.4376 28.4763 18.1173 29.7888 16.2579 30.8435C15.0001 31.5544 14.0001 32.1169 13.1251 33.281C11.3439 35.656 11.0158 37.4763 10.9533 40.6404C10.9454 41.0701 10.5939 41.406 10.172 41.406Z" fill="black"/>
<path d="M28.907 49.2186H16.407C14.9226 49.2186 10.4773 49.2186 9.45387 44.9843C3.68824 40.6952 3.14137 34.1327 5.57887 30.0624C7.30543 27.1874 10.5711 25.8436 12.8445 25.5624C13.6961 25.453 14.8367 25.4452 15.3992 26.0077C15.4941 26.1018 15.5634 26.2186 15.6003 26.3471C15.6372 26.4755 15.6405 26.6113 15.6099 26.7414C15.5794 26.8716 15.5159 26.9917 15.4257 27.0903C15.3354 27.1888 15.2214 27.2626 15.0945 27.3046C15.0554 27.3202 10.7507 28.8202 9.33668 33.0624C8.00074 37.0624 10.4851 38.3514 10.5086 38.3671C10.8914 38.5624 11.0476 39.0311 10.8601 39.4139C10.6726 39.7968 10.1961 39.953 9.81324 39.7655C9.77418 39.7499 6.1023 37.8358 7.86012 32.5702C8.68824 30.0936 10.2898 28.4374 11.7351 27.3827C10.1101 27.8671 8.11012 28.9061 6.93043 30.8749C4.81324 34.3983 5.39137 40.1639 10.6179 43.8983C10.782 44.0155 10.8914 44.1874 10.9304 44.3827C11.3679 46.6483 13.0554 47.6561 16.4148 47.6561H28.1336C28.1257 47.5468 28.0086 46.8749 26.5711 46.8749C23.7742 46.8749 22.7898 44.9608 22.7507 44.8827C22.6257 44.6327 22.6414 44.3358 22.7976 44.1014C22.8132 44.078 24.2273 41.8983 24.2273 39.0624C24.2273 36.4686 21.5554 35.0858 21.532 35.0702C21.1492 34.8749 20.9929 34.4061 21.1882 34.0233C21.3836 33.6405 21.8523 33.4843 22.2351 33.6718C22.3836 33.7421 25.7898 35.4921 25.7898 39.0546C25.7898 41.5624 24.8601 43.5936 24.3757 44.4764C24.6961 44.8124 25.3679 45.3046 26.5711 45.3046C29.0398 45.3046 29.6961 46.8358 29.6961 47.6483V48.4296C29.6961 48.8593 29.3445 49.2108 28.9148 49.2108L28.907 49.2186Z" fill="black"/>
</svg>
