<svg width="50" height="50" viewBox="0 0 50 50" fill="none" xmlns="http://www.w3.org/2000/svg">
<path d="M27.7117 18.4075C27.0382 19.1005 26.6038 19.9906 26.4718 20.9478C26.3398 21.9051 26.5172 22.8795 26.978 23.7289L27.0624 23.8852C27.4466 24.6069 28.0196 25.2106 28.7203 25.6319C29.421 26.0532 30.2231 26.2761 31.0406 26.277C31.6622 26.2761 32.277 26.1483 32.8473 25.9013L34.1559 25.3377C34.6011 25.1457 35.0827 25.0524 35.5674 25.0643C36.0521 25.0762 36.5285 25.1931 36.9638 25.4067L38.1014 25.9645C39.0524 26.4286 40.1356 26.5461 41.164 26.2968C42.1925 26.0474 43.1016 25.4468 43.7344 24.5987C44.3673 23.7505 44.6841 22.7081 44.6303 21.6512C44.5765 20.5944 44.1554 19.5894 43.4397 18.81L39.2749 14.3666C38.7892 13.848 38.2032 13.4335 37.5524 13.1483C36.9017 12.8631 36.1997 12.7131 35.4892 12.7075C34.7787 12.7019 34.0744 12.8408 33.4192 13.1157C32.764 13.3906 32.1715 13.7958 31.6778 14.3067L27.7117 18.4075ZM35.4486 13.8791C36.0056 13.8801 36.5566 13.995 37.0677 14.2167C37.5788 14.4384 38.0392 14.7621 38.4206 15.1682L42.5801 19.6064C43.1101 20.1851 43.4216 20.9305 43.4608 21.7142C43.5001 22.4979 43.2647 23.2708 42.7953 23.8995C42.3258 24.5283 41.6517 24.9735 40.8891 25.1585C40.1266 25.3436 39.3234 25.2567 38.618 24.913L37.4798 24.3555C36.8928 24.0672 36.2502 23.9096 35.5964 23.8935C34.9426 23.8774 34.293 24.0032 33.6925 24.2622L32.3839 24.8259C31.6119 25.1624 30.7413 25.1953 29.9461 24.918C29.1509 24.6407 28.4895 24.0737 28.0941 23.3301L28.0096 23.1738C27.6675 22.5432 27.5358 21.8198 27.6337 21.1091C27.7317 20.3984 28.0542 19.7376 28.5541 19.223L32.5205 15.1223C32.901 14.7302 33.356 14.4182 33.8589 14.2047C34.3617 13.9912 34.9022 13.8805 35.4486 13.8791ZM31.4377 11.5126C33.2626 11.5126 34.7473 9.58359 34.7473 7.2126C34.7473 4.8416 33.2629 2.9125 31.4377 2.9125C29.6125 2.9125 28.1282 4.8415 28.1282 7.2126C28.1282 9.58369 29.6128 11.5126 31.4377 11.5126ZM31.4377 4.08438C32.5965 4.08438 33.5754 5.51689 33.5754 7.2126C33.5754 8.9083 32.5965 10.3407 31.4377 10.3407C30.2789 10.3407 29.3001 8.9082 29.3001 7.2126C29.3001 5.51699 30.279 4.08438 31.4377 4.08438ZM39.5091 11.1704C41.334 11.1704 42.8186 9.24141 42.8186 6.87041C42.8186 4.49941 41.334 2.57031 39.5091 2.57031C37.6842 2.57031 36.1994 4.49932 36.1994 6.87041C36.1994 9.2415 37.6842 11.1704 39.5091 11.1704ZM39.5091 3.74219C40.6678 3.74219 41.6467 5.17471 41.6467 6.87041C41.6467 8.56611 40.6678 9.99854 39.5091 9.99854C38.3504 9.99854 37.3713 8.56602 37.3713 6.87041C37.3713 5.1748 38.3503 3.74219 39.5091 3.74219ZM44.6303 15.8875C44.8702 15.9653 45.1209 16.0049 45.3731 16.0047C45.8148 15.9995 46.2489 15.8891 46.6394 15.6824C47.6002 15.1909 48.3758 14.2128 48.7675 12.9988C49.4482 10.8887 48.7006 8.75078 47.101 8.2332C46.4565 8.02441 45.7618 8.09541 45.092 8.43828C44.1312 8.92978 43.3555 9.90791 42.9639 11.1219C42.2831 13.2314 43.0308 15.3695 44.6303 15.8875ZM44.0791 11.4811C44.3721 10.5744 44.9497 9.82676 45.6256 9.48105C45.8525 9.36024 46.1046 9.29438 46.3616 9.28877C46.4901 9.2883 46.6178 9.30807 46.7401 9.34736C47.7088 9.66104 48.1268 11.1684 47.6522 12.6389C47.3597 13.5455 46.7816 14.2932 46.1057 14.6389C45.836 14.777 45.4236 14.9123 44.9913 14.7722C44.0228 14.4589 43.6048 12.9516 44.0791 11.4811ZM24.3523 15.8519C24.7152 16.0202 25.1098 16.1093 25.5099 16.1133C25.8035 16.1136 26.0948 16.0603 26.3693 15.9559C27.941 15.3585 28.5811 13.1856 27.7959 11.1121C27.3443 9.91924 26.5208 8.98115 25.5367 8.53838C24.8507 8.22959 24.1531 8.19365 23.5198 8.43437C21.9482 9.03164 21.3081 11.2045 22.0932 13.2781C22.5447 14.471 23.3685 15.4091 24.3523 15.8519ZM23.936 9.52988C24.0769 9.47673 24.2263 9.44979 24.3769 9.45039C24.6117 9.45466 24.8429 9.50809 25.0558 9.60723C25.7479 9.91875 26.3625 10.6364 26.6998 11.5272C27.2467 12.9726 26.9049 14.4986 25.9528 14.8604C25.5281 15.0219 25.1094 14.9074 24.8331 14.7831C24.1408 14.4717 23.5263 13.7539 23.189 12.8632C22.6418 11.4182 22.9839 9.8918 23.936 9.52988ZM6.93469 39.4093C6.2612 40.1022 5.82676 40.9923 5.69474 41.9495C5.56272 42.9068 5.74003 43.8812 6.2008 44.7306L6.28537 44.8874C6.81877 45.89 7.71074 46.6545 8.78317 47.0283C9.85559 47.402 11.0295 47.3575 12.0705 46.9035L13.3791 46.3399C13.8244 46.1479 14.3059 46.0546 14.7907 46.0666C15.2754 46.0785 15.7518 46.1953 16.187 46.409L17.3246 46.9667C18.2757 47.4309 19.3589 47.5485 20.3874 47.2991C21.4158 47.0498 22.325 46.4492 22.9578 45.601C23.5907 44.7528 23.9076 43.7103 23.8537 42.6534C23.7999 41.5965 23.3787 40.5916 22.6629 39.8121L18.4982 35.3687C18.0125 34.8501 17.4264 34.4357 16.7757 34.1505C16.1249 33.8653 15.4229 33.7153 14.7124 33.7097C14.0019 33.7041 13.2977 33.843 12.6425 34.1179C11.9873 34.3928 11.3948 34.798 10.901 35.3089L6.93469 39.4093ZM14.6711 34.881C15.2282 34.882 15.7792 34.9969 16.2902 35.2186C16.8013 35.4402 17.2617 35.764 17.6431 36.17L21.8027 40.6082C22.3327 41.1869 22.6442 41.9323 22.6835 42.7161C22.7228 43.4998 22.4874 44.2727 22.0179 44.9015C21.5484 45.5302 20.8743 45.9755 20.1117 46.1605C19.3491 46.3455 18.5459 46.2587 17.8405 45.9149L16.7029 45.3571C16.1158 45.0689 15.4732 44.9113 14.8194 44.8952C14.1656 44.8791 13.5161 45.0049 12.9155 45.264L11.607 45.8276C10.8349 46.1641 9.96436 46.197 9.16913 45.9198C8.3739 45.6425 7.7125 45.0755 7.31701 44.3319L7.23244 44.1751C6.89031 43.5445 6.75862 42.8211 6.85659 42.1104C6.95457 41.3997 7.27708 40.7389 7.77707 40.2244L11.7433 36.123C12.1238 35.7312 12.5789 35.4195 13.0817 35.2062C13.5845 34.9929 14.1249 34.8823 14.6711 34.881ZM10.6607 32.5145C12.4856 32.5145 13.9702 30.5854 13.9702 28.2144C13.9702 25.8433 12.4859 23.9144 10.6607 23.9144C8.83547 23.9144 7.3511 25.8434 7.3511 28.2144C7.3511 30.5854 8.83576 32.5145 10.6607 32.5145ZM10.6607 25.0862C11.8194 25.0862 12.7984 26.5187 12.7984 28.2144C12.7984 29.91 11.8194 31.3426 10.6607 31.3426C9.50198 31.3426 8.52297 29.91 8.52297 28.2144C8.52297 26.5187 9.50198 25.0862 10.6607 25.0862ZM18.732 32.1722C20.5569 32.1722 22.0414 30.2432 22.0414 27.8722C22.0414 25.5012 20.5571 23.5721 18.732 23.5721C16.9069 23.5721 15.4224 25.5011 15.4224 27.8722C15.4224 30.2433 16.9071 32.1722 18.732 32.1722ZM18.732 24.7439C19.8906 24.7439 20.8696 26.1766 20.8696 27.8722C20.8696 29.5678 19.8906 31.0003 18.732 31.0003C17.5733 31.0003 16.5943 29.5678 16.5943 27.8722C16.5943 26.1766 17.5733 24.7439 18.732 24.7439ZM27.9904 34.0009C28.671 31.8908 27.9235 29.7528 26.3238 29.2348C25.6793 29.026 24.9847 29.0969 24.3149 29.4398C23.354 29.9312 22.5783 30.9094 22.1867 32.1234C21.5061 34.2335 22.2536 36.3715 23.8532 36.8896C24.093 36.9674 24.3434 37.007 24.5954 37.0068C25.0372 37.0018 25.4713 36.8913 25.8617 36.6846C26.8231 36.1931 27.5988 35.2148 27.9904 34.0009ZM24.2142 35.7745C23.2454 35.4607 22.8275 33.9534 23.3021 32.4829C23.5945 31.5763 24.1726 30.8286 24.8485 30.4829C25.0754 30.3621 25.3275 30.2962 25.5845 30.2906C25.7129 30.2902 25.8406 30.31 25.9628 30.3492C26.9317 30.663 27.3495 32.1703 26.875 33.6407C26.5821 34.5475 26.0044 35.2951 25.3286 35.6408C25.0587 35.7792 24.6464 35.9144 24.2142 35.7745ZM3.57512 36.8536C3.93805 37.022 4.33268 37.1111 4.73274 37.115C5.0264 37.1155 5.31766 37.0621 5.59211 36.9576C7.16379 36.3604 7.80383 34.1875 7.01867 32.1139C6.56701 30.921 5.74367 29.9829 4.75959 29.54C4.07336 29.2312 3.3759 29.1953 2.7427 29.436C1.17121 30.0336 0.530784 32.2064 1.31594 34.2799C1.7676 35.4728 2.59104 36.4108 3.57512 36.8536ZM3.15891 30.5317C3.29979 30.4785 3.44923 30.4516 3.59983 30.4522C3.83454 30.4565 4.06576 30.5099 4.27854 30.6091C4.97082 30.9205 5.58537 31.6383 5.92268 32.5291C6.46955 33.9744 6.12776 35.5004 5.17561 35.8622C4.751 36.0236 4.33235 35.9092 4.05598 35.785C3.36379 35.4735 2.74914 34.7558 2.41194 33.8649C1.86457 32.42 2.20637 30.8936 3.15891 30.5317Z" fill="black"/>
</svg>
