<svg width="50" height="50" viewBox="0 0 50 50" fill="none" xmlns="http://www.w3.org/2000/svg">
<path d="M11.8164 46.3379C14.2434 46.3379 16.2109 44.3704 16.2109 41.9434C16.2109 39.5163 14.2434 37.5488 11.8164 37.5488C9.38937 37.5488 7.42188 39.5163 7.42188 41.9434C7.42188 44.3704 9.38937 46.3379 11.8164 46.3379Z" stroke="black" stroke-width="1.46484" stroke-miterlimit="10" stroke-linecap="round" stroke-linejoin="round"/>
<path d="M29.3945 46.3379C31.8216 46.3379 33.7891 44.3704 33.7891 41.9434C33.7891 39.5163 31.8216 37.5488 29.3945 37.5488C26.9675 37.5488 25 39.5163 25 41.9434C25 44.3704 26.9675 46.3379 29.3945 46.3379Z" stroke="black" stroke-width="1.46484" stroke-miterlimit="10" stroke-linecap="round" stroke-linejoin="round"/>
<path d="M16.2109 16.8457V36.0839C14.9868 35.1644 13.4653 34.6191 11.8164 34.6191C7.77139 34.6191 4.49219 37.8983 4.49219 41.9434C4.49219 45.9884 7.77139 49.2676 11.8164 49.2676C15.8614 49.2676 19.1406 45.9884 19.1406 41.9434V32.5339L24.1419 27.5326C24.6913 26.9832 25 26.238 25 25.461V8.88877C25 5.47969 23.2528 2.4793 20.6055 0.732422C17.9581 2.4793 16.2109 5.47969 16.2109 8.88877V13.916" stroke="black" stroke-width="1.46484" stroke-miterlimit="10" stroke-linecap="round" stroke-linejoin="round"/>
<path d="M20.6055 26.2695C21.4145 26.2695 22.0703 25.6137 22.0703 24.8047C22.0703 23.9957 21.4145 23.3398 20.6055 23.3398C19.7965 23.3398 19.1406 23.9957 19.1406 24.8047C19.1406 25.6137 19.7965 26.2695 20.6055 26.2695Z" stroke="black" stroke-width="1.46484" stroke-miterlimit="10" stroke-linecap="round" stroke-linejoin="round"/>
<path d="M22.0703 29.6042V41.9434C22.0703 45.9884 25.3495 49.2676 29.3945 49.2676C33.4396 49.2676 36.7188 45.9884 36.7188 41.9434C36.7188 37.8983 33.4396 34.6191 29.3945 34.6191C27.7456 34.6191 26.2241 35.1644 25 36.0839V25.4609" stroke="black" stroke-width="1.46484" stroke-miterlimit="10" stroke-linecap="round" stroke-linejoin="round"/>
<path d="M45.5078 16.8457V27.0996C45.5078 28.7177 44.1962 30.0293 42.5781 30.0293H30.8594C29.2413 30.0293 27.9297 28.7177 27.9297 27.0996H39.6484V3.66211H27.9297C27.9297 2.04404 29.2413 0.732422 30.8594 0.732422H42.5781C44.1962 0.732422 45.5078 2.04404 45.5078 3.66211V13.916M36.7188 6.5918H27.9297M36.7188 9.52148H27.9297M36.7188 12.4512H27.9297M36.7188 15.3809H27.9297M36.7188 18.3105H27.9297M36.7188 21.2402H27.9297M36.7188 24.1699H27.9297M36.7188 27.0996V3.66211" stroke="black" stroke-width="1.46484" stroke-miterlimit="10" stroke-linecap="round" stroke-linejoin="round"/>
</svg>
