<svg width="16" height="16" viewBox="0 0 16 16" fill="none" xmlns="http://www.w3.org/2000/svg">
<g clip-path="url(#clip0_222_5197)">
<path d="M14.3478 10.6674C14.3229 10.6467 11.5084 8.63255 10.7448 8.7646C10.3777 8.82945 10.1677 9.07946 9.74709 9.58088C9.63081 9.72035 9.51189 9.8576 9.39041 9.99255C9.12457 9.90594 8.86529 9.80041 8.61454 9.67675C7.3201 9.04657 6.27424 8.00071 5.64406 6.70627C5.5204 6.45552 5.41486 6.19623 5.32826 5.9304C5.46642 5.80399 5.66004 5.64092 5.74274 5.57137C6.24135 5.15312 6.49136 4.94306 6.55621 4.57557C6.6892 3.81474 4.6741 0.997929 4.65343 0.972552C4.56166 0.842405 4.44214 0.734258 4.3035 0.655915C4.16485 0.577573 4.01055 0.530991 3.85171 0.519531C3.03496 0.519531 0.703125 3.54405 0.703125 4.05394C0.703125 4.08354 0.745889 7.09303 4.45699 10.868C8.22778 14.5749 11.2373 14.6177 11.2669 14.6177C11.7768 14.6177 14.8013 12.2858 14.8013 11.4691C14.7898 11.3102 14.7432 11.1559 14.6648 11.0172C14.5863 10.8785 14.4781 10.7591 14.3478 10.6674ZM11.2152 13.675C10.8045 13.6412 8.279 13.308 5.12149 10.2059C2.00344 7.03147 1.67872 4.49897 1.64629 4.10657C2.26228 3.13974 3.0062 2.26066 3.85782 1.49324C3.87662 1.51204 3.90153 1.54024 3.93348 1.57689C4.58661 2.46847 5.14925 3.42294 5.61304 4.42613C5.46222 4.57786 5.3028 4.7208 5.13558 4.85424C4.87627 5.05183 4.63815 5.27578 4.42504 5.5225L4.31084 5.68227L4.34468 5.87542C4.44413 6.30623 4.59645 6.72309 4.79817 7.11653C5.52088 8.6006 6.72011 9.79966 8.20428 10.5222C8.59764 10.7242 9.01452 10.8767 9.44539 10.9761L9.63853 11.01L9.79831 10.8958C10.046 10.6817 10.2708 10.4427 10.4694 10.1824C10.6165 10.0066 10.8134 9.77215 10.8876 9.70589C11.8937 10.1692 12.8506 10.7325 13.7439 11.3873C13.7829 11.4202 13.8102 11.4456 13.8285 11.462C13.0612 12.3139 12.1821 13.058 11.2152 13.674V13.675Z" fill="black"/>
</g>
<defs>
<clipPath id="clip0_222_5197">
<rect width="15.038" height="15.038" fill="white" transform="translate(0.226562 0.0498047)"/>
</clipPath>
</defs>
</svg>
