<svg width="16" height="16" viewBox="0 0 16 16" fill="none" xmlns="http://www.w3.org/2000/svg">
<path d="M10.7778 15.1014H5.16356C4.60186 15.0932 4.06393 14.8734 3.65733 14.4858C3.25074 14.0981 3.00545 13.5713 2.97051 13.0107L2.30529 2.89341C2.30188 2.82005 2.31304 2.74675 2.33814 2.67774C2.36323 2.60873 2.40176 2.54538 2.45149 2.49135C2.50272 2.43535 2.56475 2.3903 2.63385 2.35889C2.70294 2.32749 2.77767 2.31038 2.85355 2.3086H13.0878C13.1629 2.30843 13.2374 2.32372 13.3064 2.35353C13.3754 2.38334 13.4375 2.42703 13.489 2.48188C13.5404 2.53672 13.58 2.60156 13.6053 2.67236C13.6306 2.74315 13.641 2.81839 13.636 2.89341L13 13.0107C12.9647 13.5763 12.7153 14.1073 12.3025 14.4957C11.8897 14.884 11.3445 15.1006 10.7778 15.1014ZM3.4676 3.40512L4.03048 12.9449C4.04908 13.2325 4.17662 13.5023 4.38713 13.6992C4.59764 13.8961 4.87529 14.0054 5.16356 14.0048H10.7778C11.0655 14.0037 11.3422 13.8938 11.5523 13.6973C11.7625 13.5007 11.8905 13.2319 11.9108 12.9449L12.503 3.44167L3.4676 3.40512Z" fill="black"/>
<path d="M14.5581 3.40512H1.39982C1.25442 3.40512 1.11496 3.34735 1.01214 3.24453C0.909326 3.14172 0.851563 3.00226 0.851562 2.85686C0.851563 2.71145 0.909326 2.57199 1.01214 2.46918C1.11496 2.36636 1.25442 2.30859 1.39982 2.30859H14.5581C14.7035 2.30859 14.843 2.36636 14.9458 2.46918C15.0486 2.57199 15.1064 2.71145 15.1064 2.85686C15.1064 3.00226 15.0486 3.14172 14.9458 3.24453C14.843 3.34735 14.7035 3.40512 14.5581 3.40512Z" fill="black"/>
<path d="M10.1687 3.4048H5.78264C5.63782 3.40291 5.49946 3.34454 5.39705 3.24213C5.29464 3.13972 5.23627 3.00136 5.23438 2.85654V1.54071C5.24364 1.16557 5.3968 0.808354 5.66215 0.543007C5.9275 0.27766 6.28471 0.124501 6.65985 0.115234H9.29151C9.67289 0.124772 10.0354 0.283007 10.3018 0.556164C10.5681 0.829321 10.7171 1.19576 10.717 1.57726V2.85654C10.7151 3.00136 10.6567 3.13972 10.5543 3.24213C10.4519 3.34454 10.3135 3.40291 10.1687 3.4048ZM6.3309 2.30828H9.62047V1.57726C9.62047 1.49002 9.58581 1.40635 9.52412 1.34466C9.46243 1.28297 9.37875 1.24831 9.29151 1.24831H6.65985C6.57261 1.24831 6.48894 1.28297 6.42725 1.34466C6.36556 1.40635 6.3309 1.49002 6.3309 1.57726V2.30828ZM10.1687 12.177C10.0239 12.1751 9.88555 12.1167 9.78314 12.0143C9.68073 11.9119 9.62236 11.7735 9.62047 11.6287V5.7806C9.62047 5.63519 9.67823 5.49574 9.78105 5.39292C9.88387 5.2901 10.0233 5.23234 10.1687 5.23234C10.3141 5.23234 10.4536 5.2901 10.5564 5.39292C10.6592 5.49574 10.717 5.63519 10.717 5.7806V11.6287C10.7151 11.7735 10.6567 11.9119 10.5543 12.0143C10.4519 12.1167 10.3135 12.1751 10.1687 12.177ZM5.78264 12.177C5.63782 12.1751 5.49946 12.1167 5.39705 12.0143C5.29464 11.9119 5.23627 11.7735 5.23438 11.6287V5.7806C5.23438 5.63519 5.29214 5.49574 5.39496 5.39292C5.49778 5.2901 5.63723 5.23234 5.78264 5.23234C5.92804 5.23234 6.0675 5.2901 6.17032 5.39292C6.27313 5.49574 6.3309 5.63519 6.3309 5.7806V11.6287C6.329 11.7735 6.27063 11.9119 6.16822 12.0143C6.06581 12.1167 5.92746 12.1751 5.78264 12.177ZM7.97568 12.177C7.83086 12.1751 7.69251 12.1167 7.5901 12.0143C7.48769 11.9119 7.42931 11.7735 7.42742 11.6287V5.7806C7.42742 5.63519 7.48518 5.49574 7.588 5.39292C7.69082 5.2901 7.83027 5.23234 7.97568 5.23234C8.12109 5.23234 8.26054 5.2901 8.36336 5.39292C8.46618 5.49574 8.52394 5.63519 8.52394 5.7806V11.6287C8.52205 11.7735 8.46368 11.9119 8.36127 12.0143C8.25886 12.1167 8.1205 12.1751 7.97568 12.177Z" fill="black"/>
</svg>
