<svg width="14" height="14" viewBox="0 0 14 14" fill="none" xmlns="http://www.w3.org/2000/svg">
<path d="M9.77749 13.3902H4.81053C4.31359 13.383 3.83767 13.1885 3.47795 12.8456C3.11823 12.5026 2.90122 12.0366 2.87031 11.5405L2.28178 2.58966C2.27876 2.52476 2.28864 2.45991 2.31084 2.39886C2.33304 2.3378 2.36713 2.28175 2.41113 2.23395C2.45646 2.18441 2.51133 2.14455 2.57246 2.11677C2.63359 2.08898 2.69971 2.07384 2.76683 2.07227H11.8212C11.8877 2.07212 11.9535 2.08565 12.0146 2.11202C12.0757 2.1384 12.1306 2.17705 12.1761 2.22557C12.2216 2.2741 12.2566 2.33146 12.279 2.39409C12.3014 2.45672 12.3107 2.52329 12.3062 2.58966L11.7436 11.5405C11.7123 12.041 11.4917 12.5108 11.1265 12.8543C10.7613 13.1979 10.2789 13.3895 9.77749 13.3902ZM3.3101 3.04238L3.80808 11.4823C3.82454 11.7368 3.93737 11.9755 4.12361 12.1497C4.30986 12.3239 4.5555 12.4206 4.81053 12.4201H9.77749C10.0321 12.4191 10.2769 12.3219 10.4628 12.148C10.6487 11.974 10.762 11.7363 10.7799 11.4823L11.3038 3.07471L3.3101 3.04238Z" fill="#FF0000"/>
<path d="M13.1107 3.04237H1.46943C1.34078 3.04237 1.21741 2.99127 1.12644 2.90031C1.03548 2.80934 0.984375 2.68596 0.984375 2.55732C0.984375 2.42868 1.03548 2.3053 1.12644 2.21433C1.21741 2.12337 1.34078 2.07227 1.46943 2.07227H13.1107C13.2394 2.07227 13.3628 2.12337 13.4537 2.21433C13.5447 2.3053 13.5958 2.42868 13.5958 2.55732C13.5958 2.68596 13.5447 2.80934 13.4537 2.90031C13.3628 2.99127 13.2394 3.04237 13.1107 3.04237Z" fill="#FF0000"/>
<path d="M9.23268 3.04216H5.35224C5.22412 3.04049 5.10171 2.98885 5.01111 2.89824C4.9205 2.80764 4.86886 2.68523 4.86719 2.55711V1.39298C4.87539 1.06108 5.01089 0.745049 5.24564 0.510292C5.4804 0.275536 5.79643 0.140035 6.12833 0.131836H8.45659C8.79401 0.140274 9.11476 0.280267 9.35038 0.521933C9.58601 0.763598 9.71784 1.08779 9.71773 1.42531V2.55711C9.71606 2.68523 9.66441 2.80764 9.57381 2.89824C9.4832 2.98885 9.3608 3.04049 9.23268 3.04216ZM5.8373 2.07205H8.74762V1.42531C8.74762 1.34813 8.71696 1.2741 8.66238 1.21952C8.6078 1.16494 8.53378 1.13428 8.45659 1.13428H6.12833C6.05114 1.13428 5.97712 1.16494 5.92254 1.21952C5.86796 1.2741 5.8373 1.34813 5.8373 1.42531V2.07205ZM9.23268 10.803C9.10455 10.8014 8.98215 10.7497 8.89154 10.6591C8.80094 10.5685 8.7493 10.4461 8.74762 10.318V5.14406C8.74762 5.01542 8.79873 4.89204 8.88969 4.80108C8.98066 4.71011 9.10403 4.65901 9.23268 4.65901C9.36132 4.65901 9.4847 4.71011 9.57566 4.80108C9.66663 4.89204 9.71773 5.01542 9.71773 5.14406V10.318C9.71606 10.4461 9.66441 10.5685 9.57381 10.6591C9.4832 10.7497 9.3608 10.8014 9.23268 10.803ZM5.35224 10.803C5.22412 10.8014 5.10171 10.7497 5.01111 10.6591C4.9205 10.5685 4.86886 10.4461 4.86719 10.318V5.14406C4.86719 5.01542 4.91829 4.89204 5.00926 4.80108C5.10022 4.71011 5.2236 4.65901 5.35224 4.65901C5.48089 4.65901 5.60426 4.71011 5.69523 4.80108C5.78619 4.89204 5.8373 5.01542 5.8373 5.14406V10.318C5.83562 10.4461 5.78398 10.5685 5.69337 10.6591C5.60277 10.7497 5.48037 10.8014 5.35224 10.803ZM7.29246 10.803C7.16434 10.8014 7.04193 10.7497 6.95133 10.6591C6.86072 10.5685 6.80908 10.4461 6.8074 10.318V5.14406C6.8074 5.01542 6.85851 4.89204 6.94947 4.80108C7.04044 4.71011 7.16381 4.65901 7.29246 4.65901C7.4211 4.65901 7.54448 4.71011 7.63544 4.80108C7.72641 4.89204 7.77751 5.01542 7.77751 5.14406V10.318C7.77584 10.4461 7.7242 10.5685 7.63359 10.6591C7.54299 10.7497 7.42058 10.8014 7.29246 10.803Z" fill="#FF0000"/>
</svg>
