<svg width="16" height="17" viewBox="0 0 16 17" fill="none" xmlns="http://www.w3.org/2000/svg">
<path d="M3.31693 13.1001H3.38807L5.28302 12.9255C5.54818 12.8996 5.79394 12.7832 5.98149 12.5957L13.1344 5.44272C13.4707 5.10641 13.6583 4.66016 13.6583 4.18804C13.6583 3.71592 13.4707 3.26967 13.1344 2.93337L12.6752 2.47418C12.0026 1.80157 10.832 1.80157 10.1594 2.47418L9.24753 3.38609L3.01296 9.62065C2.82541 9.8082 2.70899 10.054 2.68959 10.3191L2.51497 12.2141C2.49557 12.4534 2.57965 12.6862 2.7478 12.8608C2.90302 13.016 3.10351 13.1001 3.31693 13.1001ZM11.4206 2.92043C11.6275 2.92043 11.8345 2.99804 11.9897 3.15973L12.4489 3.61891C12.5244 3.69319 12.5845 3.78177 12.6254 3.87948C12.6664 3.9772 12.6875 4.08209 12.6875 4.18804C12.6875 4.294 12.6664 4.39889 12.6254 4.4966C12.5845 4.59432 12.5244 4.68289 12.4489 4.75717L11.8798 5.3263L10.2823 3.72886L10.8514 3.15973C11.0067 3.00451 11.2136 2.92043 11.4206 2.92043ZM3.65323 10.4097C3.65323 10.3709 3.67264 10.3385 3.69851 10.3127L9.5903 4.4144L11.1877 6.01185L5.29595 11.9036C5.29595 11.9036 5.23128 11.9489 5.19894 11.9489L3.49802 12.1041L3.65323 10.4032V10.4097ZM14.9518 15.1632C14.9518 15.4284 14.7319 15.6483 14.4667 15.6483H1.53193C1.26677 15.6483 1.04688 15.4284 1.04688 15.1632C1.04688 14.898 1.26677 14.6782 1.53193 14.6782H14.4667C14.7319 14.6782 14.9518 14.898 14.9518 15.1632Z" fill="black"/>
</svg>
