<svg width="24" height="24" viewBox="0 0 24 24" fill="none" xmlns="http://www.w3.org/2000/svg">
<path d="M20.25 3.53223H3.75C2.8552 3.53322 1.99733 3.88912 1.36461 4.52184C0.731891 5.15456 0.375993 6.01243 0.375 6.90723V17.0922C0.375 18.953 1.88925 20.4672 3.75 20.4672H20.25C22.1108 20.4672 23.625 18.953 23.625 17.0922V6.90723C23.625 5.04648 22.1108 3.53223 20.25 3.53223ZM19.2525 5.78223L18.2175 6.59973L12.6975 10.9572C12.285 11.2797 11.715 11.2797 11.3025 10.9572L5.9775 6.74973L4.74975 5.78223H19.2525ZM20.25 18.2172H3.75C3.12975 18.2172 2.625 17.7125 2.625 17.0922V6.97848L9.9075 12.7272C10.5225 13.2147 11.265 13.4547 12 13.4547C12.735 13.4547 13.4775 13.2147 14.0925 12.7272L21.375 6.98073V17.0922C21.375 17.7125 20.8703 18.2172 20.25 18.2172Z" fill="white"/>
</svg>
