<svg width="32" height="32" viewBox="0 0 32 32" fill="none" xmlns="http://www.w3.org/2000/svg">
<circle cx="16" cy="16" r="15.75" stroke="#321B16" stroke-width="0.5"/>
<path d="M13.6784 16.487H11.7974C11.4934 16.487 11.3984 16.373 11.3984 16.088V13.789C11.3984 13.485 11.5124 13.39 11.7974 13.39H13.6784V11.718C13.6784 10.958 13.8114 10.236 14.1914 9.57097C14.5904 8.88697 15.1604 8.43097 15.8824 8.16497C16.3574 7.99397 16.8324 7.91797 17.3454 7.91797H19.2074C19.4734 7.91797 19.5874 8.03197 19.5874 8.29797V10.464C19.5874 10.73 19.4734 10.844 19.2074 10.844C18.6944 10.844 18.1814 10.844 17.6684 10.863C17.1554 10.863 16.8894 11.11 16.8894 11.642C16.8704 12.212 16.8894 12.763 16.8894 13.352H19.0934C19.3974 13.352 19.5114 13.466 19.5114 13.77V16.069C19.5114 16.373 19.4164 16.468 19.0934 16.468H16.8894V22.662C16.8894 22.985 16.7944 23.099 16.4524 23.099H14.0774C13.7924 23.099 13.6784 22.985 13.6784 22.7V16.487Z" fill="#321B16"/>
</svg>
