<svg width="32" height="32" viewBox="0 0 32 32" fill="none" xmlns="http://www.w3.org/2000/svg">
<circle cx="16" cy="16" r="15.75" stroke="#321B16" stroke-width="0.5"/>
<g clip-path="url(#clip0_222_1309)">
<path d="M17.4925 15.924C17.4925 16.7902 16.7902 17.4925 15.924 17.4925C15.0578 17.4925 14.3555 16.7902 14.3555 15.924C14.3555 15.0578 15.0578 14.3555 15.924 14.3555C16.7902 14.3555 17.4925 15.0578 17.4925 15.924Z" fill="#321B16"/>
<path d="M18.573 11.1836H13.2749C12.1217 11.1836 11.1836 12.1217 11.1836 13.2749V18.573C11.1836 19.7263 12.1217 20.6644 13.2749 20.6644H18.573C19.7263 20.6644 20.6644 19.7263 20.6644 18.573V13.2749C20.6644 12.1217 19.7263 11.1836 18.573 11.1836ZM15.924 18.5382C14.4825 18.5382 13.3098 17.3655 13.3098 15.924C13.3098 14.4825 14.4825 13.3098 15.924 13.3098C17.3655 13.3098 18.5382 14.4825 18.5382 15.924C18.5382 17.3655 17.3655 18.5382 15.924 18.5382ZM18.9216 13.4492C18.6328 13.4492 18.3988 13.2152 18.3988 12.9264C18.3988 12.6376 18.6328 12.4035 18.9216 12.4035C19.2104 12.4035 19.4444 12.6376 19.4444 12.9264C19.4444 13.2152 19.2104 13.4492 18.9216 13.4492Z" fill="#321B16"/>
<path d="M20.1407 7H11.7055C9.11096 7 7 9.11096 7 11.7055V20.1407C7 22.7352 9.11096 24.8462 11.7055 24.8462H20.1407C22.7352 24.8462 24.8462 22.7352 24.8462 20.1407V11.7055C24.8462 9.11096 22.7352 7 20.1407 7ZM21.7092 18.5721C21.7092 20.3019 20.3019 21.7092 18.5721 21.7092H13.2741C11.5443 21.7092 10.137 20.3019 10.137 18.5721V13.2741C10.137 11.5443 11.5443 10.137 13.2741 10.137H18.5721C20.3019 10.137 21.7092 11.5443 21.7092 13.2741V18.5721Z" fill="#321B16"/>
</g>
<defs>
<clipPath id="clip0_222_1309">
<rect width="17.8462" height="17.8462" fill="white" transform="translate(7 7)"/>
</clipPath>
</defs>
</svg>
