<svg width="32" height="32" viewBox="0 0 32 32" fill="none" xmlns="http://www.w3.org/2000/svg">
<circle cx="16" cy="16" r="15.75" stroke="#321B16" stroke-width="0.5"/>
<g clip-path="url(#clip0_222_1321)">
<path d="M10.9993 9.00977C9.8977 9.00977 9.00081 9.90648 9 11.0089C9 12.1114 9.89689 13.0083 10.9993 13.0083C12.1013 13.0083 12.9977 12.1114 12.9977 11.0089C12.9977 9.9066 12.1012 9.00977 10.9993 9.00977ZM12.4998 13.8115H9.49857C9.46461 13.8115 9.43098 13.8182 9.39961 13.8312C9.36823 13.8442 9.33973 13.8633 9.31572 13.8873C9.29171 13.9113 9.27266 13.9398 9.25967 13.9712C9.24668 14.0026 9.24 14.0362 9.24001 14.0702V23.7301C9.24001 23.7987 9.26725 23.8645 9.31574 23.9129C9.36423 23.9614 9.42999 23.9887 9.49857 23.9887H12.4997C12.5683 23.9887 12.634 23.9614 12.6825 23.9129C12.731 23.8645 12.7583 23.7987 12.7583 23.7301V14.0702C12.7583 14.0362 12.7517 14.0026 12.7387 13.9712C12.7257 13.9398 12.7067 13.9113 12.6826 13.8873C12.6586 13.8632 12.6301 13.8442 12.5987 13.8312C12.5674 13.8182 12.5337 13.8115 12.4998 13.8115ZM20.1722 13.6978C19.0739 13.6978 18.1087 14.0323 17.5198 14.5776V14.0702C17.5198 13.9273 17.404 13.8115 17.2612 13.8115H14.3823C14.3483 13.8115 14.3147 13.8182 14.2833 13.8312C14.2519 13.8442 14.2234 13.8633 14.1994 13.8873C14.1754 13.9113 14.1563 13.9398 14.1433 13.9712C14.1303 14.0026 14.1237 14.0362 14.1237 14.0702V23.7301C14.1237 23.7641 14.1303 23.7977 14.1433 23.8291C14.1563 23.8605 14.1754 23.889 14.1994 23.913C14.2234 23.937 14.2519 23.956 14.2833 23.969C14.3147 23.982 14.3483 23.9887 14.3823 23.9887H17.3806C17.4492 23.9887 17.5149 23.9614 17.5634 23.9129C17.6119 23.8645 17.6392 23.7987 17.6392 23.7301V18.9509C17.6392 17.5796 17.8914 16.7297 19.1502 16.7297C20.3903 16.7312 20.4831 17.6426 20.4831 19.0328V23.7301C20.4831 23.7641 20.4898 23.7977 20.5028 23.8291C20.5158 23.8605 20.5349 23.889 20.5589 23.913C20.5829 23.937 20.6114 23.956 20.6428 23.969C20.6742 23.982 20.7078 23.9887 20.7418 23.9887H23.7415C23.8101 23.9887 23.8758 23.9614 23.9243 23.9129C23.9728 23.8644 24 23.7987 24.0001 23.7301V18.4312C24 16.2274 23.5649 13.6978 20.1722 13.6978Z" fill="#321B16"/>
</g>
<defs>
<clipPath id="clip0_222_1321">
<rect width="15" height="15" fill="white" transform="translate(9 9)"/>
</clipPath>
</defs>
</svg>
