<svg width="74" height="69" viewBox="0 0 74 69" fill="none" xmlns="http://www.w3.org/2000/svg">
<path d="M37.1328 36.5471L37.3042 36.5447L37.1328 36.541V36.5471Z" fill="#1C75BC"/>
<path d="M37.523 36.541L37.3516 36.5447L37.523 36.5471V36.541Z" fill="#1C75BC"/>
<path d="M28.7969 29.5903C28.1801 31.911 25.9215 34.4795 23.4165 36.7379C21.2868 38.6586 18.9795 40.353 17.3516 41.4787C21.2455 39.0825 26.2531 38.1928 29.564 36.8457C32.6984 35.5704 34.3126 33.8844 32.0202 30.1232C30.4812 28.2084 29.3613 27.4696 28.7969 29.5903Z" fill="#653E2E"/>
<path d="M60.9437 40.2613V38.8495C60.9437 37.5886 62.0111 36.5659 63.3287 36.5635L72.2327 36.5468C73.6905 36.5468 74.4212 34.8596 73.3902 33.8729L38.4746 0.458927C37.8352 -0.152976 36.7992 -0.152976 36.1598 0.458927L1.24426 33.8729C0.21321 34.8596 0.943953 36.5468 2.40169 36.5468L11.3057 36.5635C12.6233 36.5659 13.6907 37.5886 13.6907 38.8495V64.6895L3.3026 68.125H13.6907H26.749C23.6183 66.7276 20.9068 64.1087 18.9247 60.6948C21.919 64.2656 25.3838 67.9119 23.816 63.5914C21.4986 57.203 30.4039 51.0157 32.3484 49.7572C31.201 49.1704 30.1049 48.4076 29.0913 47.4652C31.7578 48.9908 34.6545 49.8434 37.5962 50.0158C39.3368 50.1176 41.0923 49.9835 42.8253 49.6063C44.9487 49.1441 46.6092 47.5263 47.0246 45.4798C47.0734 45.2415 47.0859 45.1002 47.0859 45.1002C47.0859 45.1002 50.5307 44.3051 43.3621 42.018C42.3098 41.6827 41.2862 41.048 40.3015 40.2338C39.2016 39.3237 38.1481 38.1873 37.157 36.9779C35.9921 35.5577 34.911 34.0393 33.935 32.6754C34.5206 34.565 33.5734 35.8547 31.7866 36.8833C28.0115 39.0591 20.4838 40.0769 15.7277 43.1532C16.0431 40.8325 16.6312 38.6399 17.442 36.633C20.2348 29.7201 25.6941 25.0224 31.9768 25.0224C38.3157 25.0224 43.8188 29.8039 46.5891 36.8186C47.0221 37.9143 47.385 39.0662 47.6778 40.2613C47.7303 40.4768 47.7791 40.6948 47.8267 40.9127C49.5296 41.7749 50.7246 42.8969 50.6495 44.5734C50.6107 45.4487 50.1903 46.2306 49.4959 46.803C49.2531 47.5502 48.8927 48.2484 48.441 48.8818C48.3735 50.0206 48.2483 51.1378 48.0581 52.2215C46.7443 59.7033 42.5926 65.7193 37.2046 68.125H38.3433H60.9425H72.931L60.945 63.5567V52.2215V40.2613H60.9437ZM34.5844 38.4388C35.2539 38.4388 35.7969 38.8543 35.7969 39.3668C35.7969 39.8793 35.2539 40.2948 34.5844 40.2948C33.915 40.2948 33.3719 39.8793 33.3719 39.3668C33.3732 38.8543 33.915 38.4388 34.5844 38.4388Z" fill="#BD8E52"/>
<path d="M63.8649 13.0625H53.707L63.8649 22.7847V13.0625Z" fill="#653E2E"/>
</svg>
