<svg width="50" height="50" viewBox="0 0 50 50" fill="none" xmlns="http://www.w3.org/2000/svg">
<g clip-path="url(#clip0_222_1256)">
<path d="M43.4545 11.6884L32.1509 5.16258L22.7094 21.5188H38.8032L43.7791 12.9035C43.8939 12.6985 43.9242 12.4569 43.8636 12.23C43.8029 12.0031 43.6562 11.8088 43.4545 11.6884ZM20.6552 21.5188L30.6085 4.27254L27.5289 2.49514L16.5422 21.5188H20.6552ZM22.1975 0.44382L10.0273 21.5188H14.487L25.9863 1.6051L23.4117 0.118734C23.2075 0.00115088 22.965 -0.0306579 22.7374 0.0302823C22.5098 0.0912226 22.3156 0.239938 22.1975 0.44382Z" fill="#BD8E52"/>
<path d="M48.1088 40.2092H38.3184C35.8618 40.2062 33.8709 38.2157 33.8682 35.759V33.9789C33.8709 31.5226 35.8618 29.5317 38.3184 29.5287H48.1088V22.4084C48.1088 20.9338 46.9134 19.7383 45.4387 19.7383H41.8856L40.8569 21.5184H44.5488V23.2984H3.60703V21.5184H7.96821L8.99587 19.7383H2.71699C1.24197 19.7383 0.046875 20.9338 0.046875 22.4084V47.3295C0.046875 48.804 1.24197 49.9996 2.71699 49.9996H45.4388C46.9134 49.9996 48.1089 48.804 48.1089 47.3295L48.1088 40.2092Z" fill="#BD8E52"/>
<path d="M49.889 31.3086H38.3186C36.8436 31.3086 35.6484 32.5041 35.6484 33.9787V35.7588C35.6484 37.2334 36.8436 38.4289 38.3186 38.4289H49.889V31.3086ZM39.2086 37.5389C37.7337 37.5389 36.5385 36.3433 36.5385 34.8687C36.5385 33.3942 37.7337 32.1986 39.2086 32.1986C40.6833 32.1986 41.8787 33.3942 41.8787 34.8687C41.8787 36.3433 40.6833 37.5389 39.2086 37.5389Z" fill="#BD8E52"/>
<path d="M40.1004 34.8695C40.1004 35.1056 40.0066 35.332 39.8397 35.4989C39.6728 35.6658 39.4464 35.7596 39.2104 35.7596C38.9743 35.7596 38.7479 35.6658 38.581 35.4989C38.4141 35.332 38.3203 35.1056 38.3203 34.8695C38.3203 34.6335 38.4141 34.4071 38.581 34.2402C38.7479 34.0733 38.9743 33.9795 39.2104 33.9795C39.4464 33.9795 39.6728 34.0733 39.8397 34.2402C40.0066 34.4071 40.1004 34.6335 40.1004 34.8695Z" fill="#BD8E52"/>
</g>
<defs>
<clipPath id="clip0_222_1256">
<rect width="50" height="50" fill="white"/>
</clipPath>
</defs>
</svg>
