<svg width="50" height="50" viewBox="0 0 50 50" fill="none" xmlns="http://www.w3.org/2000/svg">
<path d="M39.7461 25C32.9778 25 27.4501 19.855 26.7105 13.2812H4.39453C1.97129 13.2812 0 15.2525 0 17.6758V44.043C0 46.4662 1.97129 48.4375 4.39453 48.4375H42.6758C45.099 48.4375 47.0703 46.4662 47.0703 44.043V22.7683C44.9735 24.175 42.4553 25 39.7461 25ZM33.8867 27.9297C34.6957 27.9297 35.3516 28.5855 35.3516 29.3945C35.3516 30.2035 34.6957 30.8594 33.8867 30.8594C33.0777 30.8594 32.4219 30.2035 32.4219 29.3945C32.4219 28.5855 33.0777 27.9297 33.8867 27.9297ZM28.0273 27.9297C28.8363 27.9297 29.4922 28.5855 29.4922 29.3945C29.4922 30.2035 28.8363 30.8594 28.0273 30.8594C27.2184 30.8594 26.5625 30.2035 26.5625 29.3945C26.5625 28.5855 27.2184 27.9297 28.0273 27.9297ZM20.5078 41.1133C20.5078 41.9229 19.8526 42.5781 19.043 42.5781H7.32422C6.51455 42.5781 5.85938 41.9229 5.85938 41.1133V38.1836C5.85938 35.6597 7.14268 33.4297 9.09141 32.112C8.00391 31.0477 7.32422 29.5686 7.32422 27.9297C7.32422 24.6981 9.95205 22.0703 13.1836 22.0703C16.4151 22.0703 19.043 24.6981 19.043 27.9297C19.043 29.5686 18.3633 31.0477 17.2758 32.112C19.2245 33.4297 20.5078 35.6597 20.5078 38.1836V41.1133ZM39.7461 42.5781H28.0273C27.2177 42.5781 26.5625 41.9229 26.5625 41.1133C26.5625 40.3036 27.2177 39.6484 28.0273 39.6484H39.7461C40.5558 39.6484 41.2109 40.3036 41.2109 41.1133C41.2109 41.9229 40.5558 42.5781 39.7461 42.5781ZM39.7461 36.7188H28.0273C27.2177 36.7188 26.5625 36.0636 26.5625 35.2539C26.5625 34.4442 27.2177 33.7891 28.0273 33.7891H39.7461C40.5558 33.7891 41.2109 34.4442 41.2109 35.2539C41.2109 36.0636 40.5558 36.7188 39.7461 36.7188ZM39.7461 30.8594C38.9371 30.8594 38.2812 30.2035 38.2812 29.3945C38.2812 28.5855 38.9371 27.9297 39.7461 27.9297C40.5551 27.9297 41.2109 28.5855 41.2109 29.3945C41.2109 30.2035 40.5551 30.8594 39.7461 30.8594Z" fill="#BD8E52"/>
<path d="M13.1836 25C11.5686 25 10.2539 26.3146 10.2539 27.9297C10.2539 29.5447 11.5686 30.8594 13.1836 30.8594C14.7986 30.8594 16.1133 29.5447 16.1133 27.9297C16.1133 26.3146 14.7986 25 13.1836 25ZM13.1836 33.7891C10.7604 33.7891 8.78906 35.7604 8.78906 38.1836V39.6484H17.5781V38.1836C17.5781 35.7604 15.6068 33.7891 13.1836 33.7891ZM39.6484 1.5625C33.995 1.5625 29.4922 6.16299 29.4922 11.8164C29.4922 17.4698 34.0927 22.0703 39.7461 22.0703C45.3995 22.0703 50 17.4698 50 11.8164C50 6.16299 45.3019 1.5625 39.6484 1.5625ZM45.1763 9.92236L39.3169 15.7817C38.7447 16.3539 37.8177 16.3539 37.2455 15.7817L34.3158 12.8521C33.7437 12.2799 33.7437 11.3528 34.3158 10.7807C34.888 10.2085 35.815 10.2085 36.3872 10.7807L38.2812 12.6747L43.105 7.85098C43.6771 7.27881 44.6042 7.27881 45.1764 7.85098C45.7485 8.42314 45.7485 9.3502 45.1763 9.92236Z" fill="#BD8E52"/>
</svg>
