<svg width="50" height="50" viewBox="0 0 50 50" fill="none" xmlns="http://www.w3.org/2000/svg">
<path d="M46.1683 42.4835L39.6233 31.235C40.7559 30.8895 41.9624 30.5844 42.4637 29.7188C43.2991 28.2765 41.812 25.9106 42.2025 24.3647C42.6047 22.7736 44.9793 21.3969 44.9793 19.7796C44.9793 18.204 42.5243 16.3632 42.1218 14.7815C41.7286 13.2359 43.2113 10.8673 42.3731 9.42682C41.535 7.98616 38.7432 8.10453 37.594 6.9987C36.4116 5.86072 36.4153 3.07642 34.9891 2.3138C33.5571 1.54835 31.2297 3.09534 29.6398 2.72889C28.0679 2.36664 26.6636 0 25.0218 0C23.3556 0 20.7055 2.68457 20.2898 2.78119C18.7007 3.15061 16.3704 1.60739 14.9399 2.37609C13.515 3.14128 13.5238 5.92585 12.3435 7.06572C11.1962 8.17358 8.40436 8.06035 7.56878 9.50262C6.73333 10.9446 8.22046 13.31 7.8301 14.8568C7.43865 16.4074 4.98135 17.9786 4.98135 19.7719C4.98135 21.3893 7.36191 22.7617 7.76659 24.352C8.15993 25.8976 6.67725 28.2659 7.5154 29.7069C7.9717 30.4913 9.007 30.8133 10.0409 31.1229C10.1616 31.1589 10.3898 31.2939 10.2352 31.5192L3.83458 42.5659C3.38166 43.3475 3.74946 44.0174 4.65166 44.0554L9.0678 44.2395C9.97 44.2775 11.1018 44.9331 11.5833 45.697L13.9398 49.4363C14.4214 50.2001 15.1855 50.1858 15.6383 49.4044C15.6383 49.4044 22.2318 38.021 22.2345 38.0178C22.3668 37.8632 22.4997 37.895 22.5634 37.949C23.2848 38.5633 24.2905 39.176 25.1299 39.176C25.953 39.176 26.7152 38.5992 27.4692 37.9559C27.5305 37.9036 27.6798 37.7965 27.789 38.0189C27.7908 38.0224 34.377 49.3435 34.377 49.3435C34.831 50.1239 35.5952 50.1371 36.0753 49.3724L38.4252 45.6286C38.9054 44.8642 40.0359 44.206 40.9381 44.1667L45.3539 43.9743C46.2557 43.9347 46.6223 43.2638 46.1683 42.4835ZM32.32 32.2439C27.4373 35.0846 21.5765 34.7802 17.0999 31.9565C10.5405 27.755 8.3822 19.0635 12.3254 12.2576C16.3136 5.3732 25.0807 2.94401 32.0271 6.72725C32.0636 6.74711 32.0996 6.76765 32.1359 6.78792C32.1873 6.81643 32.2387 6.84534 32.2899 6.87453C34.4329 8.11007 36.2912 9.90325 37.6219 12.1904C41.6887 19.181 39.3105 28.1771 32.32 32.2439Z" fill="#BD8E52"/>
<path d="M31.2034 8.93177C31.1832 8.92001 31.1626 8.90907 31.1424 8.89744C27.4317 6.74984 22.7022 6.59283 18.7384 8.89893C12.8564 12.321 10.8548 19.8903 14.2769 25.7722C15.3211 27.5672 16.752 29 18.4029 30.0283C18.5437 30.1179 18.6862 30.2047 18.8305 30.2886C24.7189 33.7 32.2841 31.6848 35.6954 25.7967C39.1065 19.9083 37.0919 12.3432 31.2034 8.93177ZM32.6765 18.5579L30.6147 20.5675C29.9761 21.1899 29.577 22.4184 29.7279 23.2974L30.2146 26.135C30.3654 27.014 29.843 27.3936 29.0537 26.9786L26.5052 25.6387C25.7158 25.2238 24.4242 25.2238 23.6348 25.6387L21.0864 26.9786C20.2971 27.3936 19.7745 27.014 19.9253 26.135L20.412 23.2974C20.5628 22.4184 20.1637 21.1899 19.5251 20.5675L17.4634 18.5579C16.8247 17.9355 17.0244 17.3213 17.9069 17.1929L20.7561 16.7789C21.6385 16.6507 22.6835 15.8914 23.0782 15.0918L24.3524 12.51C24.7471 11.7104 25.393 11.7104 25.7875 12.51L27.0619 15.0918C27.4565 15.8914 28.5014 16.6507 29.384 16.7789L32.2332 17.1929C33.1155 17.3213 33.3151 17.9355 32.6765 18.5579Z" fill="#BD8E52"/>
</svg>
