<svg width="42" height="42" viewBox="0 0 42 42" fill="none" xmlns="http://www.w3.org/2000/svg">
<ellipse cx="20.8733" cy="20.8733" rx="20.8733" ry="20.8733" transform="matrix(-1 0 0 1 41.7471 0)" fill="url(#paint0_linear_262_7737)"/>
<path d="M25.3005 12H16.1936C15.0146 12.0007 13.884 12.4695 13.0503 13.3032C12.2165 14.1369 11.7478 15.2675 11.7471 16.4466V25.5534C11.7478 26.7325 12.2165 27.8631 13.0503 28.6968C13.884 29.5305 15.0146 29.9993 16.1936 30H25.3005C26.4796 29.9993 27.6101 29.5305 28.4439 28.6968C29.2776 27.8631 29.7463 26.7325 29.7471 25.5534V16.4466C29.7463 15.2675 29.2776 14.1369 28.4439 13.3032C27.6101 12.4695 26.4796 12.0007 25.3005 12ZM28.0399 25.5534C28.0384 26.2795 27.7493 26.9754 27.2359 27.4888C26.7225 28.0022 26.0266 28.2913 25.3005 28.2928H16.1936C15.4678 28.2913 14.7722 28.0021 14.2592 27.4887C13.7463 26.9752 13.4578 26.2793 13.4571 25.5534V16.4466C13.4578 15.7208 13.7463 15.0248 14.2592 14.5113C14.7722 13.9979 15.4678 13.7087 16.1936 13.7072H25.3005C26.0266 13.7087 26.7225 13.9978 27.2359 14.5112C27.7493 15.0246 28.0384 15.7205 28.0399 16.4466V25.5534Z" fill="white"/>
<path d="M20.7471 16.7137C19.8993 16.7137 19.0706 16.9651 18.3658 17.4361C17.6609 17.9071 17.1115 18.5765 16.7871 19.3597C16.4627 20.1429 16.3778 21.0048 16.5432 21.8362C16.7086 22.6677 17.1168 23.4314 17.7162 24.0308C18.3157 24.6303 19.0794 25.0385 19.9109 25.2039C20.7423 25.3693 21.6041 25.2844 22.3873 24.96C23.1706 24.6356 23.84 24.0862 24.311 23.3813C24.7819 22.6764 25.0333 21.8477 25.0333 21C25.0333 19.8632 24.5817 18.773 23.7779 17.9692C22.9741 17.1653 21.8839 16.7137 20.7471 16.7137ZM20.7471 23.5791C20.237 23.5791 19.7383 23.4278 19.3142 23.1444C18.8901 22.861 18.5595 22.4582 18.3643 21.987C18.1691 21.5157 18.1181 20.9971 18.2176 20.4969C18.3171 19.9966 18.5627 19.537 18.9234 19.1763C19.2841 18.8156 19.7436 18.57 20.2439 18.4705C20.7442 18.371 21.2628 18.4221 21.734 18.6173C22.2053 18.8125 22.6081 19.143 22.8915 19.5672C23.1749 19.9913 23.3261 20.4899 23.3261 21C23.3254 21.6838 23.0534 22.3393 22.5699 22.8229C22.0864 23.3064 21.4309 23.5783 20.7471 23.5791Z" fill="white"/>
<path d="M25.2077 15.3947C24.9813 15.3947 24.76 15.4618 24.5717 15.5876C24.3835 15.7134 24.2368 15.8922 24.1501 16.1013C24.0635 16.3105 24.0408 16.5406 24.085 16.7627C24.1292 16.9847 24.2382 17.1887 24.3983 17.3488C24.5584 17.5089 24.7623 17.6179 24.9844 17.6621C25.2064 17.7062 25.4366 17.6836 25.6457 17.5969C25.8549 17.5103 26.0337 17.3636 26.1595 17.1753C26.2852 16.9871 26.3524 16.7658 26.3524 16.5394C26.3524 16.2358 26.2318 15.9446 26.0171 15.73C25.8024 15.5153 25.5113 15.3947 25.2077 15.3947Z" fill="white"/>
<defs>
<linearGradient id="paint0_linear_262_7737" x1="20.8733" y1="0" x2="20.8733" y2="41.7466" gradientUnits="userSpaceOnUse">
<stop stop-color="#FADD1E"/>
<stop offset="0.51" stop-color="#EA1C81"/>
<stop offset="1" stop-color="#7A1CC8"/>
</linearGradient>
</defs>
</svg>
