<svg width="14" height="14" viewBox="0 0 14 14" fill="none" xmlns="http://www.w3.org/2000/svg">
<g clip-path="url(#clip0_222_6660)">
<path d="M6.99609 0C4.53611 0 2.48438 1.9816 2.48438 4.51172C2.48438 5.47427 2.77362 6.33259 3.32872 7.13688L6.65082 12.3207C6.81199 12.5727 7.18053 12.5722 7.34136 12.3207L10.6779 7.11925C11.221 6.35141 11.5078 5.4498 11.5078 4.51172C11.5078 2.02396 9.48386 0 6.99609 0ZM6.99609 6.5625C5.86535 6.5625 4.94531 5.64247 4.94531 4.51172C4.94531 3.38097 5.86535 2.46094 6.99609 2.46094C8.12684 2.46094 9.04688 3.38097 9.04688 4.51172C9.04688 5.64247 8.12684 6.5625 6.99609 6.5625Z" fill="#976239"/>
<path d="M10.2025 9.4248L8.13723 12.6537C7.60263 13.4872 6.38657 13.4845 5.85455 12.6545L3.78588 9.42565C1.96577 9.84647 0.84375 10.6174 0.84375 11.5386C0.84375 13.1372 4.01366 13.9996 6.99609 13.9996C9.97853 13.9996 13.1484 13.1372 13.1484 11.5386C13.1484 10.6167 12.0249 9.84541 10.2025 9.4248Z" fill="#976239"/>
</g>
<defs>
<clipPath id="clip0_222_6660">
<rect width="14" height="14" fill="white"/>
</clipPath>
</defs>
</svg>
