<svg width="168" height="117" viewBox="0 0 168 117" fill="none" xmlns="http://www.w3.org/2000/svg">
<g clip-path="url(#clip0_222_6291)">
<mask id="mask0_222_6291" style="mask-type:luminance" maskUnits="userSpaceOnUse" x="0" y="0" width="168" height="117">
<path d="M168 0H0V117H168V0Z" fill="white"/>
</mask>
<g mask="url(#mask0_222_6291)">
<mask id="mask1_222_6291" style="mask-type:luminance" maskUnits="userSpaceOnUse" x="0" y="0" width="168" height="117">
<path d="M168 0H0V117H168V0Z" fill="white"/>
</mask>
<g mask="url(#mask1_222_6291)">
<path d="M167.53 83.7796C166.848 82.5802 165.81 81.7163 164.56 81.1468C163.201 80.5269 161.774 80.1139 160.309 79.8226C159.738 79.7102 159.688 79.5847 159.95 79.0748C160.246 78.5015 160.449 77.8948 160.193 77.2779C159.987 76.7834 159.729 76.2668 159.364 75.8849C158.124 74.589 156.565 74.1696 154.81 74.4231C154.648 74.4451 154.487 74.4544 154.312 74.4701C154.249 73.8284 154.206 73.2306 154.125 72.6421C154.072 72.2665 154.187 71.9816 154.389 71.6686C154.686 71.2147 155.001 70.7296 155.125 70.2131C155.602 68.2567 155.394 66.4099 154.031 64.8135C153.57 64.2719 153.096 63.743 152.607 63.1827C152.735 62.998 152.878 62.7977 153.012 62.5911C153.744 61.4705 154.124 60.2403 153.944 58.9068C153.645 56.6813 152.451 55.0818 150.369 54.2429C148.773 53.6012 147.246 53.789 145.936 54.9879C145.528 55.3603 145.189 55.8111 144.786 56.2587C144.646 56.1116 144.5 55.9582 144.309 55.7579C145.341 55.1725 145.815 54.2773 145.965 53.1974C146.024 52.7811 145.989 52.3522 145.996 51.9297C146.021 50.6118 145.497 49.557 144.419 48.812C144.073 48.5741 144.026 48.2893 144.029 47.9167C144.035 47.4754 143.995 47.0309 143.933 46.5927C143.792 45.566 143.234 44.7302 142.626 43.9415C141.42 42.3732 139.881 41.3653 137.851 41.2432C136.729 41.1744 135.663 41.2902 134.806 42.1384C134.463 42.4765 134.105 42.8052 133.824 43.0681C133.17 42.6675 132.583 42.1792 131.911 41.9194C130.429 41.3496 128.993 41.7566 127.69 42.4984C126.362 43.2528 125.511 44.4485 125.006 45.9103C124.523 47.3032 124.639 48.596 125.433 49.8324C125.627 50.1329 125.839 50.4177 126.063 50.7402C121.637 51.8138 119.748 56.1116 120.802 59.7677C120.303 59.6925 119.863 59.6487 119.43 59.561C118.389 59.3514 117.46 59.7113 116.575 60.1589C115.637 60.6347 115.001 61.4798 114.543 62.3783C114.125 63.1983 113.716 64.0685 113.629 65.0232C113.533 66.1031 113.168 67.1831 113.632 68.2723C113.726 68.4915 113.664 68.77 113.713 69.0142C113.91 69.9564 114.038 70.9142 114.58 71.75C114.976 72.3604 115.309 73.0146 115.693 73.6844C115.54 73.7283 115.45 73.7658 115.356 73.7752C114.184 73.913 113.093 74.2854 112.077 74.8927C111.597 75.1775 111.133 75.4812 110.905 76.0039C110.669 76.5486 110.512 77.1308 110.282 77.6755C109.786 78.8432 110.447 80.3766 111.425 81.0088C111.899 81.3157 112.211 81.7387 112.486 82.2734C112.177 82.3268 111.916 82.4175 111.653 82.4113C110.628 82.3927 109.674 82.6871 108.845 83.2318C108.022 83.7696 107.309 84.4801 106.532 85.0969C105.906 85.5982 105.728 86.28 105.772 87.0254C105.794 87.3818 105.962 87.7297 106.042 88.0831C106.345 89.3856 107.161 90.2712 108.29 90.9097C108.461 91.0065 108.64 91.1041 108.795 91.2258C109.705 91.9394 110.774 92.309 111.884 92.4152C113.739 92.5942 115.605 92.6972 117.466 92.5027C118.018 92.4469 118.576 92.2463 119.078 91.9991C119.667 91.7077 120.197 91.2979 120.77 90.9252C121.428 91.7922 122.211 92.5159 123.255 92.8599C124.293 93.2009 125.365 93.4294 126.462 93.4643C127.298 93.4922 128.148 93.5549 128.971 93.4449C130.296 93.2729 131.642 93.0854 132.914 92.691C134.132 92.3152 135.348 91.8147 136.318 90.9004C136.361 90.8601 136.455 90.8756 136.43 90.8787C137.103 91.4203 137.68 91.9805 138.344 92.3935C139.491 93.104 140.812 93.3171 142.128 93.4294C143.241 93.5271 144.353 93.417 145.466 93.2295C147.398 92.9041 149.094 92.1463 150.497 90.7562C150.715 90.5408 150.958 90.4277 151.304 90.5215C151.781 90.6532 152.279 90.7129 152.772 90.788C154.583 91.0631 156.403 91.1731 158.23 91.0569C159.162 90.9972 160.094 90.8314 161.01 90.647C162.887 90.265 164.751 89.8233 166.271 88.5464C166.63 88.2458 166.986 87.9142 167.256 87.5353C168.108 86.349 168.26 85.0566 167.524 83.7727L167.53 83.7796Z" fill="#976239"/>
<path d="M96.5537 94.2495C96.2262 93.2639 95.7245 92.3341 95.3315 91.3671C94.7366 89.8926 94.1724 88.4026 93.5891 86.9219C93.2654 86.0928 92.9818 85.2381 92.5919 84.4401C91.9499 83.1221 91.2425 81.839 90.5504 80.5458C89.6927 78.9403 88.9698 77.2811 88.3464 75.5688C87.8293 74.1446 87.2559 72.7267 86.392 71.4714C85.6314 70.3665 85.1891 69.1332 84.7806 67.8843C84.4007 66.7261 84.104 65.5398 83.7364 64.3784C83.4189 63.3643 83.0575 62.3657 82.7045 61.3641C82.424 60.5659 82.1597 59.7614 81.8322 58.9851C81.1093 57.2698 80.6323 55.4981 80.4797 53.6388C80.4542 53.3414 80.4666 53.0284 80.3826 52.7467C80.2708 52.3711 80.3857 52.0893 80.5544 51.7575C80.9005 51.0721 81.1995 50.3584 81.4831 49.6416C81.6017 49.3442 81.611 49.0092 81.695 48.6963C81.9347 47.8135 82.2252 46.9402 82.4309 46.0481C82.6644 45.0433 83.0043 44.0698 83.207 43.0525C83.3596 42.2856 83.6524 41.5406 83.721 40.7487C83.7518 40.4013 83.8173 40.0569 83.8613 39.7126C83.983 38.7579 84.1109 37.8032 84.2165 36.8453C84.3506 35.6621 84.4662 34.4758 84.5972 33.2112C85.2515 33.1705 85.915 33.1016 86.5793 33.0923C87.8917 33.0766 89.2033 33.0923 90.5158 33.1048C91.9807 33.1205 93.4426 33.1549 94.9076 33.1705C95.5403 33.1768 96.173 33.1642 96.8373 32.8168C96.6377 32.6791 96.5283 32.5852 96.4042 32.5194C95.6559 32.1313 94.8329 32.0561 94.0222 32.0343C92.5857 31.9967 91.1454 32.0186 89.7058 32.0624C88.5899 32.0969 87.4771 32.2127 86.3612 32.2846C85.8064 32.3222 85.2484 32.3504 84.7213 32.3817C84.6689 32.2533 84.6311 32.2033 84.6373 32.1626C84.7806 30.8573 84.9209 29.552 85.0796 28.2498C85.1552 27.6332 85.2638 27.0197 85.3763 26.4093C85.6376 24.9945 85.9343 23.5859 86.1709 22.1679C86.4144 20.7249 86.5855 19.2694 86.8251 17.8232C87.0471 16.4992 87.3769 15.2033 87.3245 13.8354C87.296 13.0747 87.4802 12.3079 87.5611 11.5441C87.6636 10.58 87.8447 9.61275 87.8385 8.64553C87.8293 7.00218 87.6705 5.36197 87.6328 3.71862C87.605 2.41959 87.0062 1.4242 86.0807 0.619737C85.7254 0.309848 85.2045 0.181511 84.7436 0.00935092C84.6342 -0.0313415 84.45 0.0563037 84.329 0.131428C83.4967 0.647908 82.7639 1.28021 82.1905 2.08153C81.7258 2.73261 81.4083 3.45881 81.2742 4.24762C81.1586 4.92374 81.1124 5.60299 80.969 6.28224C80.7009 7.53744 80.7348 8.84272 80.4766 10.1104C80.3518 10.7146 80.3202 11.3406 80.2392 11.9541C80.1707 12.4925 80.0774 13.0309 80.0211 13.5725C79.9371 14.38 79.9055 15.1907 79.8031 15.9952C79.5441 18.0361 78.9299 20.0112 78.6841 22.0647C78.5685 23.0287 78.4598 24.0429 77.8734 24.9694C77.216 26.0055 76.8637 27.2357 76.3494 28.3657C75.9474 29.2453 75.5266 30.1186 75.0684 30.97C74.6912 31.668 74.2549 32.3348 73.8154 32.9983C73.7375 33.1142 73.5349 33.1799 73.379 33.2049C72.7182 33.3083 72.0449 33.3521 71.3904 33.4898C70.2059 33.7402 69.034 34.0438 67.8527 34.3193C67.3477 34.4382 66.8335 34.5197 66.3347 34.6542C65.1129 34.9797 63.8941 35.3147 62.6817 35.6652C61.946 35.875 61.2229 36.1348 60.4874 36.3445C59.4619 36.6387 58.4115 36.8548 57.4016 37.1959C55.7059 37.7688 54.0259 38.3917 52.3522 39.0302C51.3983 39.3933 50.4103 39.7189 49.5438 40.2416C47.5676 41.4342 45.6569 42.7395 43.7213 44.0009C43.4969 44.1481 43.366 44.3546 43.341 44.7678C43.6621 44.5331 43.8772 44.3735 44.0954 44.2138C44.3167 44.0541 44.5161 43.8445 44.7593 43.7411C45.9686 43.2184 47.1593 42.6581 48.2503 41.91C48.5744 41.6877 48.9266 41.4843 49.2944 41.3466C50.3386 40.9553 51.3828 40.5421 52.4581 40.2448C54.9455 39.553 57.3174 38.4887 59.8484 37.9316C60.9362 37.6936 61.9991 37.3524 63.0713 37.052C63.545 36.9174 64.0095 36.7483 64.4864 36.6263C66.0885 36.2131 67.7 35.8187 69.302 35.4023C70.4179 35.1143 71.5244 34.7982 72.8304 34.7293C72.6216 35.0893 72.4969 35.3523 72.3317 35.5839C72.0449 35.9908 71.7301 36.3758 71.434 36.7796C70.8761 37.5403 70.2527 38.1945 69.4641 38.761C67.8838 39.9004 66.1851 40.8363 64.5207 41.8223C63.5824 42.3795 62.5881 42.8428 61.6468 43.3937C61.1076 43.7067 60.6058 44.0761 59.945 44.1011C59.7829 44.1074 59.6177 44.2138 59.4712 44.2983C58.7855 44.6959 58.1185 45.1247 57.4234 45.5035C56.8343 45.8227 56.1953 46.0481 55.6155 46.3768C54.1506 47.2062 52.7168 48.0952 51.2456 48.9122C49.9614 49.6227 48.6367 50.2644 47.3338 50.9406C46.7821 51.2286 46.2118 51.4915 45.6974 51.8358C44.3385 52.7467 43.0013 53.6983 41.6579 54.6342C41.0532 55.0567 40.4267 55.448 39.8563 55.9113C38.6563 56.8817 37.6183 58.0273 36.5773 59.1636C35.957 59.8397 35.3835 60.5565 34.7882 61.2576C33.3326 62.9761 31.7741 64.6101 30.6021 66.5602C29.9164 67.7027 29.0499 68.745 28.4203 69.9157C27.8436 70.9862 27.0332 71.8408 26.3038 72.7736C25.5745 73.7064 24.8981 74.6799 24.2217 75.6503C23.9381 76.0571 23.776 76.558 23.4581 76.9273C22.283 78.2887 21.4632 79.8856 20.5001 81.3818C19.1255 83.5103 17.9536 85.7705 16.5198 87.8672C16.3047 88.1802 16.0834 88.2871 15.7312 88.3026C15.0143 88.3305 14.2943 88.3902 13.5805 88.4529C11.3488 88.6497 9.16692 89.11 7.00998 89.7113C4.91228 90.2963 2.94549 91.1168 1.24053 92.5247C0.221288 93.3669 -0.317943 95.1917 0.199469 96.4035C0.218171 96.4469 0.24934 96.4911 0.277393 96.5314C0.975587 97.4929 1.77352 98.2879 3.01407 98.5351C3.58446 98.6474 4.12681 98.9326 4.67228 99.1673C5.94087 99.7121 7.14401 100.435 8.56844 100.535C8.73675 100.547 8.90197 100.622 9.06096 100.691C9.92747 101.055 10.7971 101.377 11.7415 101.512C12.4428 101.612 13.1286 101.856 13.8143 102.06C14.0169 102.119 14.1883 102.326 14.3878 102.35C15.3385 102.463 16.2517 102.72 17.1774 102.945C18.6891 103.309 20.232 103.553 21.7719 103.781C23.0436 103.969 24.3277 104.088 25.6088 104.194C27.0083 104.31 28.414 104.373 29.8135 104.463C30.1097 104.483 30.3995 104.557 30.6957 104.564C31.799 104.592 32.9024 104.607 34.009 104.62C35.3399 104.635 36.6739 104.689 38.0048 104.645C39.5384 104.595 41.0656 104.442 42.5961 104.366C44.1265 104.291 45.6569 104.251 47.1905 104.21C49.2476 104.153 51.3049 104.129 53.3589 104.053C54.1724 104.026 54.9828 103.894 55.7932 103.816C57.4171 103.665 59.0442 103.524 60.6681 103.374C61.7061 103.277 62.7409 103.124 63.7819 103.077C65.3997 103.005 66.9363 102.57 68.4761 102.126C69.2647 101.9 70.0345 101.549 70.8387 101.455C71.7488 101.349 72.5748 101.105 73.3852 100.704C73.7811 100.507 74.2237 100.41 74.6289 100.228C75.0746 100.031 75.4986 99.8368 75.6855 99.2828C75.9068 98.6319 76.2497 98.0214 76.577 97.3108H79.6351C79.7283 97.5022 79.8092 97.6301 79.8531 97.7711C80.2269 98.9357 81.006 99.7903 81.9316 100.535C82.0256 100.61 82.1312 100.698 82.2437 100.72C83.1631 100.914 84.0547 101.221 85.0111 101.239C86.0522 101.259 87.0933 101.365 88.1345 101.386C88.9267 101.402 89.7243 101.386 90.5127 101.311C91.6879 101.202 92.8539 100.998 94.0291 100.898C94.9701 100.817 95.8648 100.757 96.7094 100.191C97.1487 99.8965 97.3421 99.64 97.3174 99.1704C97.2797 98.4506 97.2766 97.7246 97.161 97.0172C97.0115 96.0843 96.8497 95.1421 96.5537 94.2526V94.2495ZM71.8299 91.7832C71.0912 91.426 70.4335 91.0882 69.7602 90.7906C69.3831 90.6217 68.9872 90.4528 68.5851 90.3931C67.2916 90.1994 65.9888 90.0522 64.6266 89.8833C64.6672 89.7771 64.7015 89.5888 64.795 89.4385C65.1471 88.8752 65.5648 88.3491 65.8734 87.7641C66.2287 87.0877 66.4625 86.3462 66.8116 85.6666C67.1607 84.9879 67.5254 84.2928 68.0023 83.704C68.6475 82.9028 69.1057 82.0048 69.5857 81.106C69.8756 80.5612 70.1873 80.0297 70.5083 79.4563C71.4901 80.3203 71.9047 81.4694 72.3816 82.5867C72.7525 83.4537 73.1515 84.3145 73.6066 85.1413C74.0803 86.0052 74.286 86.9505 74.5572 87.8765C74.7473 88.5343 74.8565 89.213 75.0185 89.9615C73.6595 90.0584 72.4564 90.3683 71.833 91.7832H71.8299ZM95.2722 99.7717C93.5428 99.85 91.8251 100.088 90.0857 100.119C88.976 100.141 87.8694 100.047 86.7566 100.103C85.9281 100.144 85.0835 99.9089 84.2481 99.7872C83.9799 99.7493 83.7148 99.6966 83.4559 99.6214C82.3839 99.3053 81.7011 98.5227 81.1871 97.5929C80.7879 96.87 80.9374 96.0905 81.1093 95.3265C81.1964 94.9383 81.2804 94.5501 81.396 94.1681C81.4584 93.9589 81.5578 93.752 81.6796 93.5707C81.8599 93.3011 82.0818 93.0601 82.2745 92.8005C83.0606 91.739 84.1633 91.3578 85.4164 91.4105C86.5015 91.4546 87.602 91.3446 88.6739 91.6545C88.8049 91.6925 89.0762 91.5391 89.1417 91.4043C89.2033 91.2795 89.1286 91.0161 89.023 90.8975C88.8673 90.7193 88.6454 90.5434 88.4211 90.4876C87.4894 90.2498 86.5639 90.0181 85.5759 90.0646C84.9086 90.0964 84.2635 90.1026 83.5992 90.2684C82.5489 90.5341 81.7882 91.1633 81.1278 91.9583C80.4982 92.7192 80.1082 93.5831 79.9903 94.585C79.9279 95.0948 79.7098 95.5892 79.5564 96.1091H76.4866C76.3401 95.827 76.2123 95.5613 76.0721 95.3017C75.4643 94.1681 74.4637 93.4452 73.4258 92.7595C73.245 92.6378 73.0922 92.4751 72.9302 92.3372C73.3509 91.5174 74.1427 91.3888 74.8502 91.3229C76.0783 91.2137 77.3216 91.0758 78.5531 91.3764C78.6718 91.4043 78.8744 91.2888 78.9584 91.1788C79.0116 91.1098 78.9523 90.8658 78.8683 90.8038C78.5908 90.6031 78.2972 90.3869 77.9797 90.2901C77.5119 90.149 77.0165 90.1026 76.5552 90.0212C76.4804 87.792 75.5858 85.8293 74.6196 83.9357C73.6657 82.0667 72.6933 80.1638 70.9259 78.8396C71.7769 77.513 72.5873 76.245 73.4227 74.9428C73.5504 75.0805 73.7063 75.2057 73.806 75.3654C74.5354 76.5423 75.592 77.4282 76.4959 78.4483C76.8856 78.8899 77.2407 79.3719 77.5651 79.8662C78.1076 80.6961 78.6186 81.5445 79.1326 82.393C79.6751 83.2848 80.2269 84.1735 80.7409 85.0847C81.2303 85.9487 81.7636 86.7684 82.5581 87.6045C82.5774 87.3194 82.6174 87.169 82.5959 87.0257C82.3308 85.4605 81.695 84.0294 80.9559 82.6463C80.492 81.7762 79.9556 80.9432 79.4539 80.0886C79.1549 79.5757 78.9207 79.0124 78.5592 78.5521C77.945 77.7757 77.2692 77.0495 76.5895 76.3295C75.9411 75.6408 75.3739 74.8927 74.791 74.1509C74.0211 73.1743 73.1078 72.3134 72.2444 71.4151C71.4901 70.6294 70.7421 69.8344 69.9472 69.0925C69.2771 68.4665 68.5696 67.8717 67.8247 67.3364C66.8802 66.6572 65.8048 66.1439 64.9259 65.3957C63.6822 64.3378 62.2017 63.7712 60.7741 63.0888C60.4967 62.9573 60.1507 62.9479 59.8359 62.9417C59.7113 62.9417 59.5834 63.1045 59.3995 63.2359C59.9512 63.5458 60.4063 63.8213 60.8832 64.0623C62.2422 64.7478 63.5232 65.5366 64.6765 66.5477C65.2718 67.0704 65.942 67.5243 66.6215 67.9375C67.6563 68.5667 68.5197 69.3898 69.3519 70.2475C70.5052 71.4401 71.6335 72.6609 72.7743 73.8692C72.8429 73.9411 72.899 74.0226 72.9832 74.129C72.1447 75.1431 71.3 76.1417 70.4865 77.1652C69.7945 78.0353 69.0621 78.8651 68.6537 79.9514C68.3982 80.6271 67.9119 81.2408 67.435 81.8041C66.3254 83.1159 65.5742 84.6059 64.9663 86.1989C64.7139 86.8622 64.3305 87.4821 63.969 88.0988C63.118 89.5454 62.3855 91.0285 62.0707 92.6975C61.9835 93.1539 61.8152 93.6017 61.6437 94.0403C60.9611 95.7774 60.2473 97.5022 59.5803 99.2425C59.2718 100.053 59.0379 100.892 58.7512 101.781C58.2213 101.844 57.6478 101.925 57.0712 101.972C55.6374 102.088 54.2036 102.207 52.7667 102.288C50.4196 102.419 48.0695 102.536 45.7224 102.626C44.513 102.673 43.3005 102.642 42.0911 102.663C41.5737 102.673 41.0532 102.777 40.5358 102.758C39.1768 102.711 37.8272 102.976 36.4557 102.789C35.7669 102.695 35.0406 102.839 34.3331 102.876C34.0869 102.889 33.8437 102.921 33.6006 102.908C33.1112 102.876 32.6281 102.814 32.1388 102.78C31.5247 102.735 30.9107 102.704 30.2966 102.67C29.6857 102.636 29.0935 102.429 28.4608 102.539C28.1303 102.595 27.7719 102.491 27.426 102.454C27.2795 102.439 27.1298 102.376 26.9833 102.391C25.6399 102.51 24.3464 102.157 23.0311 102.009C22.7381 101.975 22.4419 101.953 22.149 101.913C20.9708 101.75 19.7925 101.6 18.6206 101.402C17.8881 101.28 17.1712 101.08 16.4481 100.914C16.3764 100.898 16.3047 100.851 16.233 100.851C15.0891 100.823 14.101 100.225 13.0226 99.9561C12.6423 99.8593 12.262 99.7554 11.8474 99.6493C11.9316 99.4393 12.0033 99.2301 12.1 99.0294C12.8636 97.4991 13.6335 95.9712 14.4034 94.4409C14.447 94.3533 14.4875 94.2526 14.553 94.1844C15.2044 93.5204 15.488 92.603 16.074 91.9149C16.8283 91.0316 17.2086 89.9398 17.8726 89.0162C18.365 88.3336 18.8606 87.6549 19.3001 86.9405C19.8206 86.1021 20.2851 85.2257 20.7744 84.3649C21.0767 83.8326 21.3791 83.3003 21.6939 82.7742C22.2799 81.801 22.8628 80.8247 23.4674 79.8631C24.0254 78.9775 24.6114 78.1135 25.1786 77.2372C25.5807 76.6112 25.9423 75.957 26.3755 75.356C26.7527 74.8364 27.2234 74.3888 27.6286 73.8911C28.255 73.1242 28.8628 72.3416 29.4738 71.5653C29.5174 71.509 29.5517 71.437 29.5704 71.3681C29.7886 70.523 30.3902 69.9126 30.8702 69.2302C31.0541 68.9704 31.238 68.7137 31.4063 68.4445C31.905 67.6526 32.385 66.8544 32.8931 66.0687C33.0676 65.7996 33.3326 65.5929 33.4946 65.3175C34.411 63.7649 35.6859 62.5035 36.8297 61.1387C37.3846 60.4751 38.0329 59.8897 38.6532 59.2825C39.8625 58.0993 41.2496 57.1383 42.5431 56.0584C44.0953 54.7656 45.8533 53.7765 47.5645 52.7122C48.8985 51.8828 50.2326 51.0752 51.6944 50.4929C51.7162 50.4836 51.7381 50.471 51.7599 50.4585C52.6202 49.9733 53.4929 49.5132 54.3968 49.1031C55.6561 48.5303 56.8405 47.7916 58.0624 47.1312C58.9133 46.671 59.7642 46.2014 60.6338 45.782C61.2136 45.5035 61.8432 45.3344 62.4261 45.0652C62.9871 44.8085 63.4921 44.3797 64.0749 44.2169C64.9259 43.9822 65.5898 43.4406 66.235 42.9492C67.0298 42.3419 68.0521 42.1447 68.7441 41.3998C69.3924 40.7017 70.2777 40.3355 71.0195 39.7752C71.3125 39.553 71.5525 39.2587 71.8143 38.9958C72.0418 38.7673 72.2756 38.5419 72.4813 38.2946C72.6839 38.0505 72.8585 37.7875 73.033 37.5246C73.5878 36.6983 74.1302 35.8656 74.6912 35.0424C74.9998 34.5916 75.3551 34.1721 75.6451 33.7089C76.418 32.4662 77.1975 31.2204 77.9142 29.9464C78.4221 29.0449 78.9523 28.1435 79.1796 27.1136C79.2012 27.0197 79.2605 26.9352 79.3045 26.8444C79.7191 25.968 80.1337 25.0946 80.5452 24.2182C80.5668 24.1744 80.5853 24.1211 80.5822 24.0742C80.5382 23.3135 80.7972 22.6061 80.9313 21.8737C81.1247 20.8344 81.2927 19.789 81.4584 18.7467C81.5825 17.9704 81.6857 17.1878 81.7975 16.4084C81.8322 16.1611 81.873 15.917 81.8915 15.6665C81.9223 15.2502 81.9416 14.8339 81.9662 14.4176C81.9724 14.2924 81.9693 14.1672 81.9817 14.0419C82.0911 13.056 82.2313 12.07 82.303 11.0808C82.4148 9.50009 82.4525 7.91308 82.5743 6.33545C82.6768 5.02078 82.8016 3.69671 83.5306 2.53854C83.8204 2.0784 84.1079 1.59636 84.7591 1.5807C85.6445 1.55879 86.2395 2.04084 86.3173 3.02059C86.3982 4.03477 86.3581 5.05834 86.3612 6.07877C86.3612 6.67664 86.308 7.27451 86.3427 7.86922C86.4144 9.02117 86.221 10.1449 86.0653 11.2749C85.915 12.3579 85.8433 13.4504 85.7224 14.5365C85.6538 15.1469 85.5598 15.7573 85.4696 16.3677C85.2299 17.9641 84.9926 19.5636 84.7344 21.16C84.578 22.1116 84.3753 23.0537 84.2134 24.0022C83.899 25.8396 83.5306 27.6708 83.3095 29.5176C83.076 31.4646 82.9981 33.4303 82.8294 35.3835C82.7762 36.0159 82.6552 36.6419 82.5643 37.2711C82.4178 38.2977 82.256 39.3213 82.1219 40.3511C81.9478 41.7097 81.7821 43.0588 81.2619 44.3546C80.9035 45.2468 80.7818 46.2296 80.5074 47.1562C80.1144 48.4928 79.622 49.8012 79.2829 51.1471C78.8459 52.875 78.6779 54.6467 79.1919 56.3934C79.6535 57.9647 80.1491 59.5298 80.7255 61.0604C81.3806 62.7946 82.0502 64.5256 82.5273 66.3129C82.9203 67.7841 83.4998 69.1739 84.0169 70.5918C84.2789 71.3118 84.712 71.9723 85.0897 72.6452C85.7532 73.8348 86.3859 75.0368 86.8567 76.3201C87.2868 77.4875 87.6767 78.6768 88.1907 79.8073C88.6832 80.8898 89.3344 81.8978 89.88 82.9594C90.5381 84.2394 91.217 85.5132 91.775 86.8374C92.598 88.7846 93.2716 90.7937 94.2218 92.6812C94.7797 93.7869 95.2159 94.9166 95.481 96.1153C95.6898 97.0606 95.8301 98.0214 95.9642 98.9798C96.0266 99.4114 95.7338 99.7368 95.266 99.7585L95.2722 99.7717Z" fill="#976239"/>
<path d="M119.086 105.13C118.525 105.121 117.961 105.174 117.393 105.199C117.393 104.717 117.446 104.229 117.384 103.753C117.169 102.166 116.066 101.234 114.797 100.51C114.142 100.135 113.388 99.8776 112.646 99.7242C111.832 99.5553 110.963 99.4274 110.149 99.5367C109.152 99.6684 108.17 100 107.222 100.36C106.247 100.729 105.533 101.464 105.025 102.385C104.642 103.08 104.605 103.828 104.742 104.601C104.651 104.592 104.598 104.601 104.558 104.579C103.214 103.863 101.821 103.766 100.462 104.438C99.3025 105.012 98.5049 105.957 98.0117 107.19C97.4822 108.52 97.5385 109.823 98.0587 111.109C98.7692 112.865 100.808 114.12 102.862 113.507C103.295 113.378 103.694 113.131 104.152 112.921C104.255 113.206 104.33 113.466 104.449 113.707C104.589 113.995 104.736 114.293 104.938 114.537C106.318 116.193 108.192 116.815 110.249 116.984C111.375 117.075 112.477 116.837 113.556 116.524C114.569 116.227 115.333 115.535 115.968 114.743C116.262 114.377 116.349 113.839 116.508 113.372C116.561 113.216 116.552 113.034 116.57 112.855C116.689 112.812 116.779 112.752 116.869 112.749C118.244 112.737 119.304 111.988 120.348 111.225C120.99 110.755 121.354 110.054 121.673 109.353C122.523 107.466 121.598 105.184 119.086 105.136V105.13Z" fill="#976239"/>
<path d="M104.536 37.7842C104.501 38.5136 104.564 39.171 104.854 39.8689C105.53 41.4904 106.867 42.1446 108.416 42.4325C109.177 42.5734 110.003 42.4827 110.782 42.3668C111.499 42.2573 112.241 42.1196 112.843 41.6375C113.154 41.3871 114.488 40.7673 114.847 40.7611C115.773 40.7485 116.589 40.4074 117.316 39.8878C118.148 39.293 118.973 38.6482 119.145 37.537C119.223 37.0268 119.192 36.4978 119.201 35.975C119.223 34.629 118.812 33.4959 117.615 32.7446C117.437 32.632 117.25 32.463 117.166 32.2783C116.87 31.6209 116.621 30.9448 116.343 30.2781C115.695 28.7349 114.738 28.3061 113.254 28.3311C112.307 28.3468 111.399 28.6348 110.543 29.026C109.417 29.5425 108.601 30.3469 108.404 31.6428C108.379 31.8119 108.37 31.9841 108.348 32.2532C107.105 32.1969 106.222 32.8323 105.356 33.5053C104.716 34.003 104.468 34.6885 104.477 35.4742C104.486 36.2442 104.579 37.0174 104.542 37.7842H104.536Z" fill="#976239"/>
<path d="M39.9644 24.281C39.7337 25.0135 39.8148 25.8524 40.0174 26.685C40.2387 27.6021 40.6221 28.4347 41.3733 29.0326C42.3707 29.8277 43.5146 30.2565 44.7739 29.9091C45.5687 29.69 46.2731 29.5835 47.0056 30.05C47.1708 30.1563 47.4389 30.1157 47.6602 30.1219C48.4955 30.1407 49.309 29.9998 50.0166 29.5585C50.4467 29.2893 50.8831 28.9543 51.1605 28.5412C51.7496 27.6679 51.575 26.7288 51.0794 25.8711C50.6524 25.1356 50.082 24.5032 49.3745 24.0118C49.1283 23.8397 48.9818 23.6581 49.0347 23.3325C49.0659 23.1416 49.016 22.9381 49.0066 22.7378C48.9381 21.3198 48.243 20.3088 46.99 19.6921C46.7562 19.5763 46.4695 19.5169 46.2108 19.5262C45.4346 19.5575 44.7209 19.8142 44.0663 20.29C43.8232 20.074 43.6237 19.8424 43.3743 19.689C43.0221 19.4699 42.6419 19.1788 42.2585 19.1538C41.3047 19.088 40.379 19.3103 39.5717 19.8675C38.4932 20.6093 38.1286 22.0429 38.8829 23.0508C39.1759 23.4421 39.5249 23.7895 39.9581 24.2841L39.9644 24.281Z" fill="#976239"/>
<path d="M7.78547 82.7871C8.07846 81.7542 8.35273 80.7183 8.6613 79.6916C9.05094 78.3798 9.42501 77.0619 9.88007 75.7754C10.5004 74.0194 11.1767 72.2821 11.8593 70.5479C12.7071 68.3944 13.4864 66.2064 14.4713 64.1154C15.4874 61.9525 16.6905 59.8772 17.8563 57.7894C18.729 56.2274 19.661 54.6999 20.5961 53.1755C21.7525 51.2849 22.884 49.3754 24.3177 47.6789C25.0721 46.7836 25.8793 45.9353 26.618 45.0276C27.9677 43.3686 29.2519 41.6595 30.6202 40.0193C31.203 39.3213 31.7298 38.5794 32.4124 37.9377C33.5096 36.9048 34.4572 35.7028 35.4234 34.5352C36.1216 33.6932 36.7605 32.8011 37.412 31.9184C37.8172 31.3706 38.1882 30.7978 38.5777 30.2343C38.5278 30.1999 38.478 30.1623 38.4312 30.1279C38.2536 30.3251 38.0853 30.5349 37.8982 30.7226C36.8198 31.8151 35.7382 32.9013 34.6535 33.9875C33.8306 34.8106 33.0047 35.6276 32.1755 36.4446C31.3277 37.2803 30.4239 38.0629 29.6446 38.955C28.5505 40.2071 27.5531 41.5405 26.5058 42.8334C25.6799 43.8537 24.832 44.8585 24.006 45.8821C23.3546 46.6866 22.6875 47.4848 22.0797 48.3205C21.0263 49.7666 20.0693 51.2817 19.1935 52.8437C18.7914 53.5605 18.3706 54.2647 17.9529 54.969C17.5352 55.6734 17.0927 56.3651 16.6968 57.0819C16.114 58.1274 15.6059 59.2136 14.9887 60.234C14.1316 61.6489 13.5113 63.1732 12.8879 64.6883C12.0463 66.7354 11.3606 68.8483 10.6187 70.9392C10.2136 72.0849 9.82397 73.2368 9.43741 74.3855C9.11328 75.3497 8.77351 76.3075 8.48991 77.2841C8.19999 78.283 7.95377 79.2902 7.72936 80.3045C7.57975 80.984 7.48313 81.676 7.39896 82.3648C7.35844 82.684 7.30858 83.028 7.58598 83.4534C7.68261 83.1435 7.74809 82.9653 7.79795 82.784L7.78547 82.7871Z" fill="#976239"/>
</g>
</g>
</g>
<defs>
<clipPath id="clip0_222_6291">
<rect width="168" height="117" fill="white"/>
</clipPath>
</defs>
</svg>
