<svg width="13" height="13" viewBox="0 0 13 13" fill="none" xmlns="http://www.w3.org/2000/svg">
<path d="M12.1556 5.19231L7.88716 0.923837C7.69314 0.729815 7.40211 0.729815 7.20808 0.923837L5.65591 2.47601C5.41338 2.71854 5.51039 3.00957 5.65591 3.15509L5.99545 3.49462L4.54029 4.94979C3.8127 4.80427 1.82398 4.46473 0.756861 5.53185C0.56284 5.72587 0.56284 6.01691 0.756861 6.21093L3.52167 8.97574L0.465829 12.0316C0.271807 12.2256 0.271807 12.5166 0.465829 12.7107C0.659851 12.9047 0.999389 12.8562 1.1449 12.7107L4.20075 9.65481L6.96556 12.4196C7.25659 12.6622 7.54762 12.5651 7.64463 12.4196C8.71175 11.3525 8.37221 9.36378 8.2267 8.6362L9.68186 7.18104L10.0214 7.52058C10.2154 7.7146 10.5065 7.7146 10.7005 7.52058L12.2526 5.9684C12.3497 5.67737 12.3497 5.38634 12.1556 5.19231ZM10.2639 6.40495L9.92439 6.06541C9.73037 5.87139 9.43933 5.87139 9.24531 6.06541L7.25659 8.10264C7.11107 8.24816 7.06257 8.39367 7.11107 8.5877C7.25659 9.12125 7.49912 10.4309 7.11107 11.304L1.77548 5.9684C2.60007 5.58036 3.95822 5.82289 4.49178 5.9684C4.6373 6.01691 4.83132 5.9684 4.97683 5.82289L6.96556 3.83416C7.25659 3.54313 7.11107 3.3006 6.96556 3.15509L6.62602 2.81555L7.54762 1.94245L11.137 5.53185L10.2639 6.40495Z" fill="black"/>
</svg>
