<svg width="16" height="16" viewBox="0 0 16 16" fill="none" xmlns="http://www.w3.org/2000/svg">
<path d="M7.98777 0.898438C6.50065 0.898438 5.04692 1.33942 3.81043 2.16562C2.57393 2.99182 1.6102 4.16613 1.0411 5.54005C0.472008 6.91397 0.323106 8.42579 0.613229 9.88434C0.903352 11.3429 1.61947 12.6826 2.67102 13.7342C3.72257 14.7858 5.06234 15.5019 6.52088 15.792C7.97943 16.0821 9.49125 15.9332 10.8652 15.3641C12.2391 14.795 13.4134 13.8313 14.2396 12.5948C15.0658 11.3583 15.5068 9.90457 15.5068 8.41745C15.5046 6.42395 14.7118 4.51271 13.3021 3.10309C11.8925 1.69347 9.98127 0.900594 7.98777 0.898438ZM7.98777 14.6833C6.7485 14.6833 5.53706 14.3158 4.50665 13.6273C3.47624 12.9388 2.67313 11.9602 2.19888 10.8153C1.72463 9.67035 1.60055 8.4105 1.84232 7.19505C2.08409 5.97959 2.68085 4.86312 3.55715 3.98683C4.43344 3.11054 5.54991 2.51377 6.76536 2.272C7.98082 2.03023 9.24067 2.15432 10.3856 2.62857C11.5305 3.10281 12.5091 3.90592 13.1976 4.93634C13.8861 5.96675 14.2536 7.17819 14.2536 8.41745C14.2518 10.0787 13.5911 11.6714 12.4164 12.8461C11.2417 14.0207 9.64901 14.6815 7.98777 14.6833Z" fill="black"/>
<path d="M7.98596 6.53809C7.81978 6.53809 7.6604 6.6041 7.5429 6.72161C7.42539 6.83912 7.35938 6.99849 7.35938 7.16467V12.1773C7.35938 12.3435 7.42539 12.5029 7.5429 12.6204C7.6604 12.7379 7.81978 12.8039 7.98596 12.8039C8.15214 12.8039 8.31151 12.7379 8.42902 12.6204C8.54653 12.5029 8.61254 12.3435 8.61254 12.1773V7.16467C8.61254 6.99849 8.54653 6.83912 8.42902 6.72161C8.31151 6.6041 8.15214 6.53809 7.98596 6.53809Z" fill="black"/>
<path d="M7.98596 5.28442C8.33201 5.28442 8.61254 5.00389 8.61254 4.65783C8.61254 4.31178 8.33201 4.03125 7.98596 4.03125C7.63991 4.03125 7.35938 4.31178 7.35938 4.65783C7.35938 5.00389 7.63991 5.28442 7.98596 5.28442Z" fill="black"/>
</svg>
