<svg width="42" height="42" viewBox="0 0 42 42" fill="none" xmlns="http://www.w3.org/2000/svg">
<ellipse cx="20.8733" cy="20.8733" rx="20.8733" ry="20.8733" fill="#976239"/>
<path d="M22.3005 20.2626C21.9967 19.5671 21.4438 19.0104 20.7504 18.7019L20.3222 19.1172L20.0354 19.4062L19.7356 19.706C19.6818 19.7606 19.633 19.8201 19.59 19.8837C19.9875 19.9048 20.3631 20.0721 20.6445 20.3536C20.9259 20.635 21.0933 21.0106 21.1144 21.408C21.1302 21.6374 21.0978 21.8675 21.0192 22.0836C20.9407 22.2997 20.8178 22.4969 20.6584 22.6626L20.6455 22.6797L18.2455 25.0797C17.9328 25.3648 17.5221 25.5183 17.0991 25.5084C16.676 25.4984 16.2731 25.3257 15.9741 25.0262C15.6752 24.7266 15.5032 24.3234 15.494 23.9003C15.4848 23.4772 15.6391 23.0669 15.9247 22.7547L17.0723 21.605C17.008 21.4016 16.9608 21.1932 16.931 20.982C16.9089 20.8252 16.8974 20.6671 16.8967 20.5088C16.8968 20.2204 16.9305 19.933 16.9974 19.6524L14.9056 21.7441C14.3735 22.3313 14.0877 23.1007 14.1074 23.8928C14.1271 24.685 14.4509 25.4392 15.0117 25.9991C15.5724 26.559 16.3271 26.8817 17.1193 26.9002C17.9114 26.9188 18.6804 26.6318 19.2668 26.0988L21.3542 24.0093L21.6668 23.6988C21.8396 23.5238 21.9912 23.3291 22.1185 23.1186C22.3773 22.6927 22.529 22.2104 22.5607 21.713C22.5924 21.2156 22.5031 20.718 22.3005 20.2626Z" fill="white"/>
<path d="M25.0987 15.9036C24.8123 15.6169 24.4723 15.3894 24.0979 15.2341C23.7236 15.0789 23.3223 14.999 22.9171 14.999C22.5118 14.999 22.1105 15.0789 21.7362 15.2341C21.3619 15.3894 21.0218 15.6169 20.7354 15.9036L18.3354 18.3036C18.1626 18.4787 18.011 18.6734 17.8837 18.8838C17.4632 19.5664 17.3293 20.3874 17.5112 21.1682C17.5564 21.3679 17.6202 21.5628 17.7017 21.7506C18.009 22.4468 18.5658 23.0028 19.2625 23.3092L19.68 22.8853L19.9647 22.6069L20.2644 22.3094C20.3183 22.2539 20.367 22.1937 20.41 22.1295C20.0126 22.1084 19.637 21.941 19.3556 21.6596C19.0742 21.3782 18.9068 21.0026 18.8857 20.6052C18.8699 20.3758 18.9023 20.1457 18.9808 19.9296C19.0594 19.7135 19.1823 19.5163 19.3417 19.3506L19.3545 19.3334L19.6949 18.993L20.1681 18.522L20.5963 18.081L21.7438 16.9356C21.8937 16.7738 22.0745 16.6438 22.2757 16.5533C22.4768 16.4628 22.694 16.4137 22.9145 16.4089C23.135 16.4041 23.3542 16.4438 23.5591 16.5254C23.7639 16.6071 23.9502 16.7291 24.107 16.8843C24.2637 17.0394 24.3876 17.2245 24.4714 17.4285C24.5551 17.6325 24.5969 17.8513 24.5944 18.0718C24.5918 18.2923 24.5449 18.5101 24.4565 18.7121C24.368 18.9142 24.2399 19.0963 24.0796 19.2478L22.9299 20.3975C22.9952 20.6006 23.0425 20.8091 23.0712 21.0205C23.0933 21.1773 23.1048 21.3353 23.1055 21.4937C23.1055 21.7821 23.0718 22.0695 23.0048 22.35L25.0965 20.2583C25.6723 19.6801 25.9958 18.8974 25.9962 18.0814C25.9966 17.2654 25.6739 16.4824 25.0987 15.9036Z" fill="white"/>
</svg>
