<svg width="17" height="17" viewBox="0 0 17 17" fill="none" xmlns="http://www.w3.org/2000/svg">
<g clip-path="url(#clip0_222_5211)">
<path d="M8.63578 0.240234C6.26722 0.240234 4.34025 2.16721 4.34025 4.53576C4.34025 6.90432 6.26722 8.8313 8.63578 8.8313C11.0043 8.8313 12.9313 6.90432 12.9313 4.53576C12.9313 2.16721 11.0043 0.240234 8.63578 0.240234ZM8.63578 7.87673C6.79357 7.87673 5.29481 6.37797 5.29481 4.53576C5.29481 2.69356 6.79357 1.1948 8.63578 1.1948C10.478 1.1948 11.9767 2.69356 11.9767 4.53576C11.9767 6.37797 10.478 7.87673 8.63578 7.87673ZM13.9802 11.6375C12.8042 10.4435 11.2452 9.78586 9.59034 9.78586H7.68122C6.02639 9.78586 4.46733 10.4435 3.29131 11.6375C2.12105 12.8258 1.47656 14.3943 1.47656 16.0541C1.47656 16.3177 1.69026 16.5314 1.95384 16.5314H15.3177C15.5813 16.5314 15.795 16.3177 15.795 16.0541C15.795 14.3943 15.1505 12.8258 13.9802 11.6375ZM2.45213 15.5769C2.69124 12.8695 4.94516 10.7404 7.68122 10.7404H9.59034C12.3264 10.7404 14.5803 12.8695 14.8194 15.5769H2.45213Z" fill="black"/>
</g>
<defs>
<clipPath id="clip0_222_5211">
<rect width="16.2912" height="16.2912" fill="white" transform="translate(0.484375 0.240234)"/>
</clipPath>
</defs>
</svg>
