<svg width="14" height="14" viewBox="0 0 14 14" fill="none" xmlns="http://www.w3.org/2000/svg">
<g clip-path="url(#clip0_222_6667)">
<path d="M6.99823 13.3012C5.75186 13.3014 4.53339 12.9321 3.49693 12.2399C2.46047 11.5476 1.65257 10.5636 1.1754 9.41218C0.698238 8.26076 0.57324 6.9937 0.816218 5.77124C1.0592 4.54878 1.65924 3.42584 2.54045 2.54442C3.42167 1.66299 4.54448 1.06269 5.76688 0.819433C6.98929 0.576171 8.25637 0.700876 9.4079 1.17778C10.5594 1.65468 11.5437 2.46235 12.2361 3.49865C12.9286 4.53495 13.2982 5.75333 13.2982 6.9997C13.2967 8.67023 12.6325 10.2719 11.4514 11.4533C10.2703 12.6347 8.66876 13.2992 6.99823 13.3012ZM6.99823 1.86491C5.9826 1.86462 4.9897 2.16553 4.1451 2.72957C3.30049 3.29361 2.64213 4.09546 2.25326 5.03369C1.8644 5.97193 1.76251 7.00441 1.96047 8.00056C2.15843 8.99671 2.64736 9.91177 3.36541 10.63C4.08347 11.3483 4.9984 11.8375 5.99449 12.0357C6.99058 12.234 8.02309 12.1324 8.96144 11.7438C9.89978 11.3552 10.7018 10.697 11.2661 9.85259C11.8304 9.00815 12.1316 8.01533 12.1316 6.9997C12.1296 5.63872 11.5882 4.334 10.626 3.3715C9.66378 2.409 8.35922 1.86723 6.99823 1.86491ZM10.9051 6.9997C10.9051 6.84499 10.8436 6.69662 10.7343 6.58722C10.6249 6.47783 10.4765 6.41637 10.3218 6.41637H7.58157V3.67325C7.58157 3.51854 7.52011 3.37016 7.41071 3.26077C7.30131 3.15137 7.15294 3.08991 6.99823 3.08991C6.84352 3.08991 6.69515 3.15137 6.58575 3.26077C6.47636 3.37016 6.4149 3.51854 6.4149 3.67325V6.9997C6.4149 7.15441 6.47636 7.30279 6.58575 7.41218C6.69515 7.52158 6.84352 7.58304 6.99823 7.58304H10.3218C10.4765 7.58304 10.6249 7.52158 10.7343 7.41218C10.8436 7.30279 10.9051 7.15441 10.9051 6.9997Z" fill="#976239"/>
</g>
<defs>
<clipPath id="clip0_222_6667">
<rect width="14" height="14" fill="white"/>
</clipPath>
</defs>
</svg>
