<svg width="42" height="42" viewBox="0 0 42 42" fill="none" xmlns="http://www.w3.org/2000/svg">
<ellipse cx="20.8733" cy="20.8733" rx="20.8733" ry="20.8733" fill="#65D072"/>
<path d="M9.63477 32.1127L11.2489 26.1212C9.94714 23.7872 9.53356 21.0637 10.084 18.4503C10.6345 15.8369 12.1121 13.5091 14.2457 11.8938C16.3794 10.2786 19.0258 9.48444 21.6995 9.65699C24.3733 9.82955 26.8949 10.9573 28.8016 12.8332C30.7084 14.7092 31.8725 17.2076 32.0802 19.8699C32.2879 22.5322 31.5254 25.1798 29.9325 27.327C28.3396 29.4742 26.0232 30.9769 23.4084 31.5593C20.7936 32.1417 18.0557 31.7648 15.6972 30.4977L9.63477 32.1127ZM15.9896 28.2556L16.3645 28.4773C18.0728 29.4865 20.0681 29.9041 22.0394 29.665C24.0107 29.426 25.8472 28.5438 27.2629 27.1559C28.6786 25.7679 29.5939 23.9522 29.8661 21.9917C30.1383 20.0312 29.7521 18.036 28.7678 16.3171C27.7835 14.5982 26.2562 13.252 24.4241 12.4885C22.592 11.7249 20.558 11.5868 18.6389 12.0957C16.7198 12.6046 15.0236 13.7319 13.8145 15.302C12.6054 16.872 11.9513 18.7966 11.9543 20.7758C11.9527 22.4168 12.408 24.0261 13.2697 25.4246L13.5048 25.8109L12.6025 29.155L15.9896 28.2556Z" fill="white"/>
<path fill-rule="evenodd" clip-rule="evenodd" d="M25.1664 22.4366C24.9372 22.2657 24.6687 22.1455 24.3815 22.0849C24.0944 22.0244 23.796 22.0253 23.5093 22.0875C23.0784 22.2528 22.8 22.8776 22.5216 23.19C22.4629 23.2649 22.3766 23.3174 22.279 23.3377C22.1814 23.358 22.0791 23.3447 21.9913 23.3002C20.4139 22.7293 19.0917 21.6824 18.2395 20.3295C18.1668 20.2451 18.1324 20.1379 18.1436 20.0305C18.1547 19.9231 18.2105 19.8239 18.2992 19.7538C18.6097 19.4697 18.8377 19.1179 18.962 18.7309C18.9897 18.304 18.8838 17.8787 18.6571 17.5058C18.4819 16.9831 18.1484 16.5176 17.696 16.1644C17.4627 16.0675 17.2039 16.035 16.9511 16.0708C16.6982 16.1067 16.4619 16.2094 16.2708 16.3666C15.939 16.6311 15.6757 16.961 15.5002 17.332C15.3247 17.703 15.2414 18.1057 15.2566 18.5104C15.2577 18.7376 15.2888 18.9639 15.3494 19.1841C15.5034 19.7133 15.7401 20.2188 16.0521 20.6848C16.2772 21.0417 16.5228 21.3873 16.7879 21.7199C17.6493 22.8127 18.7321 23.7404 19.9762 24.4518C20.6005 24.8132 21.2678 25.1071 21.9648 25.3277C22.6889 25.6309 23.4883 25.7474 24.2782 25.6645C24.7283 25.6016 25.1547 25.4374 25.5199 25.1864C25.8852 24.9354 26.1781 24.6053 26.3728 24.2251C26.4873 23.9955 26.522 23.7387 26.4723 23.4901C26.353 22.9817 25.6172 22.6816 25.1664 22.4366Z" fill="white"/>
</svg>
